<?xml version="1.0" encoding="UTF-8"?>
<svg xmlns="http://www.w3.org/2000/svg" width="46" height="46" viewBox="0 0 46 46" fill="none">
  <path d="M26.8333 11.5H11.5C9.71367 11.5 8.8205 11.5 8.11517 11.7913C7.65012 11.9842 7.22761 12.2668 6.87178 12.6229C6.51595 12.9791 6.23376 13.4019 6.04133 13.8671C5.75 14.5705 5.75 15.4637 5.75 17.25C7.27499 17.25 8.73753 17.8558 9.81586 18.9341C10.8942 20.0125 11.5 21.475 11.5 23C11.5 24.525 10.8942 25.9875 9.81586 27.0659C8.73753 28.1442 7.27499 28.75 5.75 28.75C5.75 30.5363 5.75 31.4295 6.04133 32.1329C6.23376 32.5981 6.51595 33.0209 6.87178 33.3771C7.22761 33.7332 7.65012 34.0158 8.11517 34.2087C8.8205 34.5 9.71367 34.5 11.5 34.5H26.8333M26.8333 11.5H34.5C36.2863 11.5 37.1795 11.5 37.8829 11.7913C38.3483 11.984 38.7712 12.2665 39.1274 12.6226C39.4835 12.9788 39.766 13.4017 39.9587 13.8671C40.25 14.5705 40.25 15.4637 40.25 17.25C38.725 17.25 37.2625 17.8558 36.1841 18.9341C35.1058 20.0125 34.5 21.475 34.5 23C34.5 24.525 35.1058 25.9875 36.1841 27.0659C37.2625 28.1442 38.725 28.75 40.25 28.75C40.25 30.5363 40.25 31.4295 39.9587 32.1329C39.766 32.5983 39.4835 33.0212 39.1274 33.3774C38.7712 33.7335 38.3483 34.016 37.8829 34.2087C37.1795 34.5 36.2863 34.5 34.5 34.5H26.8333M26.8333 11.5V34.5" stroke="black" stroke-width="3" stroke-linecap="round" stroke-linejoin="round"></path>
</svg>
