<?xml version="1.0" encoding="UTF-8"?>
<svg xmlns="http://www.w3.org/2000/svg" width="46" height="47" viewBox="0 0 46 47" fill="none">
  <path d="M26.8333 12H11.5C9.71367 12 8.8205 12 8.11517 12.2913C7.65012 12.4842 7.22761 12.7668 6.87178 13.1229C6.51595 13.4791 6.23376 13.9019 6.04133 14.3671C5.75 15.0705 5.75 15.9637 5.75 17.75C7.27499 17.75 8.73753 18.3558 9.81586 19.4341C10.8942 20.5125 11.5 21.975 11.5 23.5C11.5 25.025 10.8942 26.4875 9.81586 27.5659C8.73753 28.6442 7.27499 29.25 5.75 29.25C5.75 31.0363 5.75 31.9295 6.04133 32.6329C6.23376 33.0981 6.51595 33.5209 6.87178 33.8771C7.22761 34.2332 7.65012 34.5158 8.11517 34.7087C8.8205 35 9.71367 35 11.5 35H26.8333M26.8333 12H34.5C36.2863 12 37.1795 12 37.8829 12.2913C38.3483 12.484 38.7712 12.7665 39.1274 13.1226C39.4835 13.4788 39.766 13.9017 39.9587 14.3671C40.25 15.0705 40.25 15.9637 40.25 17.75C38.725 17.75 37.2625 18.3558 36.1841 19.4341C35.1058 20.5125 34.5 21.975 34.5 23.5C34.5 25.025 35.1058 26.4875 36.1841 27.5659C37.2625 28.6442 38.725 29.25 40.25 29.25C40.25 31.0363 40.25 31.9295 39.9587 32.6329C39.766 33.0983 39.4835 33.5212 39.1274 33.8774C38.7712 34.2335 38.3483 34.516 37.8829 34.7087C37.1795 35 36.2863 35 34.5 35H26.8333M26.8333 12V35" stroke="white" stroke-width="3" stroke-linecap="round" stroke-linejoin="round"></path>
</svg>
