<?xml version="1.0" encoding="UTF-8"?>
<svg xmlns="http://www.w3.org/2000/svg" width="25" height="25" viewBox="0 0 25 25" fill="none">
  <path d="M24.8177 4.49399C24.6414 2.27703 22.6053 0.323474 20.4292 0.201016C17.7859 0.0670044 15.1438 0 12.5005 0C9.8572 0 7.21505 0.0670044 4.57176 0.201016C2.39687 0.323474 0.359545 2.27703 0.183325 4.49399C-0.0611084 7.84889 -0.0611084 11.2038 0.183325 14.5587C0.359545 16.7757 2.39687 18.7292 4.57176 18.8517C7.21505 18.9857 9.8572 19.0527 12.5005 19.0527V23.988C12.5005 24.5876 12.9848 25 13.4987 25C13.7045 25 13.9159 24.9342 14.1024 24.7863L22.6303 18.088C23.7444 17.2609 24.704 15.9831 24.8165 14.5587C25.061 11.2026 25.061 7.84774 24.8177 4.49399ZM21.8447 14.3207C21.8151 14.6407 21.474 15.1941 20.8726 15.64L20.8067 15.6897L15.4826 19.8718V16.0213H12.5005C9.92315 16.0213 7.30941 15.9554 4.73206 15.8249C4.03628 15.781 3.21544 14.9988 3.15745 14.3207C2.92666 11.1391 2.92666 7.91243 3.15745 4.72967C3.21657 4.05268 4.03628 3.26941 4.7332 3.22551C7.31055 3.09496 9.92428 3.02911 12.5016 3.02911C15.079 3.02911 17.6927 3.09496 20.2701 3.22551C20.9795 3.26941 21.7856 4.03882 21.8447 4.72851C22.0755 7.91243 22.0755 11.1391 21.8447 14.3207Z" fill="#F76C2E"></path>
  <path d="M7.40776 7.57739C6.40729 7.57739 5.59668 8.4011 5.59668 9.41773C5.59668 10.4344 6.40729 11.2581 7.40776 11.2581C8.40823 11.2581 9.21884 10.4344 9.21884 9.41773C9.21884 8.4011 8.40823 7.57739 7.40776 7.57739Z" fill="#F76C2E"></path>
  <path d="M12.5005 7.57739C11.5001 7.57739 10.6895 8.4011 10.6895 9.41773C10.6895 10.4344 11.5001 11.2581 12.5005 11.2581C13.501 11.2581 14.3116 10.4344 14.3116 9.41773C14.3116 8.4011 13.501 7.57739 12.5005 7.57739Z" fill="#F76C2E"></path>
  <path d="M17.5923 7.57739C16.5919 7.57739 15.7812 8.4011 15.7812 9.41773C15.7812 10.4344 16.5919 11.2581 17.5923 11.2581C18.5928 11.2581 19.4034 10.4344 19.4034 9.41773C19.4034 8.4011 18.5928 7.57739 17.5923 7.57739Z" fill="#F76C2E"></path>
</svg>
