<?xml version="1.0" encoding="UTF-8"?>
<svg xmlns="http://www.w3.org/2000/svg" width="25" height="25" viewBox="0 0 25 25" fill="none">
  <path d="M24.9855 13.3171C24.9967 13.1879 25.0011 13.0576 24.9967 12.9262C24.9733 12.1301 24.9343 11.323 24.882 10.5192C24.6772 7.67158 22.152 5.2226 19.2439 5.05918C19.0224 5.04814 18.7954 5.0382 18.5683 5.02827V3.37868C18.5683 1.51599 17.0402 0 15.1627 0H9.91185C8.03432 0 6.50626 1.51599 6.50626 3.37868V5.02385C6.24917 5.03489 5.9943 5.04704 5.74389 5.05918C2.84579 5.22149 0.320527 7.67048 0.114633 10.528C0.0634375 11.3219 0.0244858 12.129 0.00111403 12.9262C0.00111403 12.9406 0.00111403 12.9549 0.00111403 12.9693H0C0 14.4742 0.0478585 17.9026 0.144684 19.3854C0.349466 22.233 2.87473 24.682 5.78285 24.8454C7.85403 24.9492 10.1745 25 12.4972 25C14.8221 25 17.1493 24.9481 19.2272 24.8443C22.1253 24.682 24.6505 22.233 24.8564 19.3744C24.9566 17.8308 25 14.6155 25 13.3171H24.9855ZM9.4255 3.37868C9.4255 3.11258 9.64364 2.89617 9.91185 2.89617H15.1627C15.4309 2.89617 15.6491 3.11258 15.6491 3.37868V4.93552C13.6057 4.89356 11.4722 4.89246 9.42439 4.93441V3.37868H9.4255ZM3.02609 10.7245C3.12514 9.35209 4.49851 8.02933 5.89859 7.95093C7.93527 7.84935 10.219 7.79856 12.5006 7.79856C14.7799 7.79856 17.0581 7.84935 19.0881 7.95093C20.497 8.03043 21.8715 9.35209 21.9695 10.7157C22.0184 11.4765 22.0552 12.2494 22.0785 13.0123C22.0841 13.1857 21.9962 13.3027 21.9428 13.3568C21.8893 13.412 21.7714 13.5048 21.5911 13.5048H18.5683V11.5769H15.6491V13.5048H9.42439V11.5769H6.50514V13.5048H3.40449C3.22419 13.5048 3.10733 13.412 3.0528 13.3568C2.99938 13.3027 2.91146 13.1857 2.91702 13.0123C2.94039 12.2483 2.97712 11.4754 3.02609 10.7245ZM19.0691 21.9515C15.0158 22.1535 9.98086 22.1535 5.93643 21.9526C4.52744 21.8731 3.15296 20.5514 3.05503 19.1889C3.01385 18.5463 2.98046 17.4775 2.9582 16.3711C3.10511 16.3899 3.25424 16.4009 3.4056 16.4009H6.50626V18.4072H9.4255V16.4009H15.6502V18.4072H18.5694V16.4009H21.5922C21.7446 16.4009 21.8949 16.3899 22.0429 16.3711C22.0195 17.4565 21.9862 18.5143 21.9428 19.179C21.8437 20.5503 20.4692 21.8731 19.0691 21.9515Z" fill="#F76C2E"></path>
</svg>
