<?xml version="1.0" encoding="UTF-8"?>
<svg xmlns="http://www.w3.org/2000/svg" width="19" height="19" viewBox="0 0 19 19" fill="none">
  <path d="M19 19H2.29703C1.03066 19 0 17.754 0 16.2231V0.019043H1.96899V16.2222C1.96899 16.4409 2.11612 16.6188 2.29703 16.6188H19V19Z" fill="#F76C2E"></path>
  <path d="M8.74949 14.8347H5.2972C4.39265 14.8347 3.65625 13.9445 3.65625 12.8509V6.50036C3.65625 5.40684 4.3919 4.5166 5.2972 4.5166H8.74949C9.65404 4.5166 10.3904 5.40594 10.3904 6.50036V12.8509C10.3904 13.9445 9.65404 14.8347 8.74949 14.8347ZM5.62599 12.4544H8.42145V6.89784H5.62599V12.4544Z" fill="#F76C2E"></path>
  <path d="M17.3188 14.8346H13.8665C12.962 14.8346 12.2256 13.9444 12.2256 12.8509V1.98376C12.2256 0.890244 12.962 0 13.8665 0H17.3188C18.2234 0 18.9598 0.889336 18.9598 1.98376V12.8509C18.9598 13.9444 18.2234 14.8346 17.3188 14.8346ZM14.1953 12.4543H16.9908V2.38033H14.1953V12.4543Z" fill="#F76C2E"></path>
</svg>
