<?xml version="1.0" encoding="UTF-8"?>
<svg xmlns="http://www.w3.org/2000/svg" width="50" height="50" viewBox="0 0 50 50" fill="none">
  <path d="M49.6353 8.98799C49.2829 4.55407 45.2105 0.646948 40.8585 0.402031C35.5719 0.134009 30.2876 0 25.001 0C19.7144 0 14.4301 0.134009 9.14352 0.402031C4.79374 0.646948 0.719089 4.55407 0.36665 8.98799C-0.122217 15.6978 -0.122217 22.4076 0.36665 29.1174C0.719089 33.5513 4.79374 37.4584 9.14352 37.7033C14.4301 37.9714 19.7144 38.1054 25.001 38.1054V47.976C25.001 49.1752 25.9696 50 26.9974 50C27.4089 50 27.8319 49.8683 28.2048 49.5726L45.2605 36.1761C47.4889 34.5217 49.408 31.9663 49.6331 29.1174C50.1219 22.4053 50.1219 15.6955 49.6353 8.98799ZM43.6894 28.6414C43.6302 29.2814 42.9481 30.3882 41.7453 31.28L41.6134 31.3794L30.9652 39.7435V32.0425H25.001C19.8463 32.0425 14.6188 31.9108 9.46412 31.6497C8.07256 31.5619 6.43087 29.9977 6.31491 28.6414C5.85333 22.2782 5.85333 15.8249 6.31491 9.45934C6.43315 8.10536 8.07256 6.53881 9.4664 6.45101C14.6211 6.18992 19.8486 6.05823 25.0033 6.05823C30.158 6.05823 35.3854 6.18992 40.5401 6.45101C41.959 6.53881 43.5711 8.07763 43.6894 9.45702C44.1509 15.8249 44.1509 22.2782 43.6894 28.6414Z" fill="#003B71"></path>
  <path d="M14.8165 15.1548C12.8156 15.1548 11.1943 16.8022 11.1943 18.8355C11.1943 20.8688 12.8156 22.5162 14.8165 22.5162C16.8174 22.5162 18.4387 20.8688 18.4387 18.8355C18.4387 16.8022 16.8174 15.1548 14.8165 15.1548Z" fill="#003B71"></path>
  <path d="M25.0011 15.1548C23.0001 15.1548 21.3789 16.8022 21.3789 18.8355C21.3789 20.8688 23.0001 22.5162 25.0011 22.5162C27.002 22.5162 28.6232 20.8688 28.6232 18.8355C28.6232 16.8022 27.002 15.1548 25.0011 15.1548Z" fill="#003B71"></path>
  <path d="M35.1856 15.1548C33.1847 15.1548 31.5635 16.8022 31.5635 18.8355C31.5635 20.8688 33.1847 22.5162 35.1856 22.5162C37.1866 22.5162 38.8078 20.8688 38.8078 18.8355C38.8078 16.8022 37.1866 15.1548 35.1856 15.1548Z" fill="#003B71"></path>
</svg>
