<?xml version="1.0" encoding="UTF-8"?>
<svg xmlns="http://www.w3.org/2000/svg" width="25" height="25" viewBox="0 0 25 25" fill="none">
  <path d="M24.8749 6.867C24.7653 4.62665 22.8813 2.6513 20.7573 2.52522C20.6987 2.52172 20.6411 2.51938 20.5825 2.51588V2.51471H14.5267L13.7774 1.61343C12.925 0.587233 11.7056 0 10.4254 0H4.43032C1.98387 0 0 2.13295 0 4.76324V12.2256C0.00108586 14.919 0.0890399 17.6123 0.263864 20.3068C0.421314 22.546 2.31071 24.5599 4.39339 24.7163C7.0961 24.9054 9.79773 25 12.5004 25C15.2021 25 17.9048 24.9054 20.6075 24.7163C22.6902 24.5599 24.5807 22.546 24.737 20.3068C25.0335 15.742 25.0791 11.4329 24.8749 6.867ZM21.9561 20.7341C21.9279 21.082 21.4306 21.6085 21.1026 21.6377C18.249 21.8385 15.3541 21.9389 12.5004 21.9389C9.64571 21.9389 6.75189 21.8385 3.89715 21.6377C3.57031 21.6085 3.0719 21.0808 3.04367 20.7329C2.86124 17.9018 2.76895 15.0521 2.76895 12.2011H2.76677V4.43868C2.76677 3.67867 3.34011 3.06225 4.047 3.06225H10.6197C11.0888 3.06225 11.5351 3.27706 11.8478 3.65415L13.6428 5.81629H21.3252V5.81979C21.6749 5.84548 22.0886 6.31129 22.1038 6.55062C22.3155 11.3477 22.2667 15.9347 21.9561 20.7341Z" fill="#F76C2E"></path>
</svg>
