<?xml version="1.0" encoding="UTF-8"?>
<svg xmlns="http://www.w3.org/2000/svg" width="50" height="50" viewBox="0 0 50 50" fill="none">
  <path d="M50 50H6.0448C2.71226 50 0 46.7211 0 42.6924V0.0501709H5.18154V42.69C5.18154 43.2655 5.56873 43.7336 6.0448 43.7336H50V50Z" fill="#003B71"></path>
  <path d="M23.0234 39.0386H13.9384C11.558 39.0386 9.62012 36.6958 9.62012 33.8181V17.1061C9.62012 14.2284 11.556 11.8857 13.9384 11.8857H23.0234C25.4038 11.8857 27.3417 14.226 27.3417 17.1061V33.8181C27.3417 36.6958 25.4038 39.0386 23.0234 39.0386ZM14.8036 32.7745H22.1601V18.1521H14.8036V32.7745Z" fill="#003B71"></path>
  <path d="M45.5751 39.0386H36.4902C34.1098 39.0386 32.1719 36.6958 32.1719 33.8181V5.22043C32.1719 2.34275 34.1098 0 36.4902 0H45.5751C47.9555 0 49.8934 2.34036 49.8934 5.22043V33.8181C49.8934 36.6958 47.9555 39.0386 45.5751 39.0386ZM37.3554 32.7745H44.7119V6.26403H37.3554V32.7745Z" fill="#003B71"></path>
</svg>
