<?xml version="1.0" encoding="UTF-8"?>
<svg xmlns="http://www.w3.org/2000/svg" width="50" height="50" viewBox="0 0 50 50" fill="none">
  <path d="M49.9711 26.6341C49.9933 26.3758 50.0022 26.1152 49.9933 25.8524C49.9466 24.2602 49.8687 22.646 49.7641 21.0383C49.3545 15.3432 44.304 10.4452 38.4877 10.1184C38.0448 10.0963 37.5907 10.0764 37.1366 10.0565V6.75735C37.1366 3.03198 34.0805 0 30.3254 0H19.8237C16.0686 0 13.0125 3.03198 13.0125 6.75735V10.0477C12.4983 10.0698 11.9886 10.0941 11.4878 10.1184C5.69159 10.443 0.641054 15.341 0.229266 21.056C0.126875 22.6438 0.0489716 24.258 0.00222806 25.8524C0.00222806 25.8811 0.00222806 25.9098 0.00222806 25.9385H0C0 28.9484 0.095717 35.8051 0.289369 38.7709C0.698931 44.466 5.74946 49.364 11.5657 49.6908C15.7081 49.8984 20.349 50 24.9944 50C29.6443 50 34.2986 49.8962 38.4543 49.6886C44.2505 49.364 49.3011 44.466 49.7129 38.7488C49.9132 35.6616 50 29.2311 50 26.6341H49.9711ZM18.851 6.75735C18.851 6.22516 19.2873 5.79233 19.8237 5.79233H30.3254C30.8619 5.79233 31.2981 6.22516 31.2981 6.75735V9.87104C27.2114 9.78712 22.9444 9.78491 18.8488 9.86883V6.75735H18.851ZM6.05218 21.4491C6.25028 18.7042 8.99702 16.0587 11.7972 15.9019C15.8705 15.6987 20.4381 15.5971 25.0011 15.5971C29.5597 15.5971 34.1161 15.6987 38.1761 15.9019C40.9941 16.0609 43.743 18.7042 43.9389 21.4314C44.0369 22.9529 44.1103 24.4987 44.1571 26.0246C44.1682 26.3713 43.9924 26.6054 43.8855 26.7136C43.7787 26.824 43.5427 27.0095 43.1821 27.0095H37.1366V23.1539H31.2981V27.0095H18.8488V23.1539H13.0103V27.0095H6.80897C6.44838 27.0095 6.21466 26.824 6.10559 26.7136C5.99875 26.6054 5.82291 26.3713 5.83404 26.0246C5.88079 24.4965 5.95424 22.9507 6.05218 21.4491ZM38.1383 43.9029C30.0316 44.307 19.9617 44.307 11.8729 43.9051C9.05489 43.7461 6.30593 41.1028 6.11005 38.3778C6.02769 37.0926 5.96092 34.955 5.9164 32.7422C6.21022 32.7798 6.50848 32.8019 6.8112 32.8019H13.0125V36.8143H18.851V32.8019H31.3004V36.8143H37.1389V32.8019H43.1843C43.4893 32.8019 43.7898 32.7798 44.0858 32.7422C44.0391 34.913 43.9723 37.0285 43.8855 38.3579C43.6874 41.1006 40.9384 43.7461 38.1383 43.9029Z" fill="#003B71"></path>
</svg>
