<?xml version="1.0" encoding="UTF-8"?>
<svg xmlns="http://www.w3.org/2000/svg" width="50" height="50" viewBox="0 0 50 50" fill="none">
  <path d="M13.5 21C18.1863 21 22 17.1863 22 12.5C22 7.81371 18.1863 4 13.5 4C8.81372 4 5 7.81371 5 12.5C5 17.1882 8.81372 21 13.5 21ZM13.5 9.01925C15.4193 9.01925 16.9808 10.5807 16.9808 12.5C16.9808 14.4193 15.4193 15.9808 13.5 15.9808C11.5807 15.9808 10.0193 14.4193 10.0193 12.5C10.0193 10.5807 11.5807 9.01925 13.5 9.01925Z" fill="#003B71"></path>
  <path d="M36.5 21C41.1863 21 45 17.1863 45 12.5C45 7.81371 41.1863 4 36.5 4C31.8137 4 28 7.81371 28 12.5C28 17.1882 31.8118 21 36.5 21ZM36.5 9.01925C38.4193 9.01925 39.9808 10.5807 39.9808 12.5C39.9808 14.4193 38.4193 15.9808 36.5 15.9808C34.5807 15.9808 33.0192 14.4193 33.0192 12.5C33.0192 10.5807 34.5807 9.01925 36.5 9.01925Z" fill="#003B71"></path>
  <path d="M40.8806 25.5981H31.566C29.0003 25.5981 26.6621 26.94 24.9953 29.1175C23.336 26.9495 21.0092 25.5981 18.434 25.5981H9.11936C4.09035 25.5981 0 30.7483 0 37.0804V44.7806C0 47.6577 1.86028 50 4.14533 50H45.8547C48.1397 50 50 47.6601 50 44.7806V37.0804C50 30.7507 45.9097 25.5981 40.8806 25.5981ZM22.5794 43.7372H4.97402V37.0804C4.97402 34.2032 6.83431 31.8609 9.11936 31.8609H18.434C20.7191 31.8609 22.5794 34.2009 22.5794 37.0804V43.7372ZM45.026 43.7372H27.5534V37.0804C27.5534 36.7127 27.5382 36.3474 27.5117 35.9868C27.9118 33.6039 29.5919 31.8609 31.566 31.8609H40.8806C43.1657 31.8609 45.026 34.2009 45.026 37.0804V43.7372Z" fill="#003B71"></path>
</svg>
