<?xml version="1.0" encoding="UTF-8"?>
<svg xmlns="http://www.w3.org/2000/svg" width="138" height="31" viewBox="0 0 138 31" fill="none">
  <path d="M119.557 14.5857H120.516V11.3432H124.946V14.5857H125.905V6.43372H119.557V14.5857Z" fill="black"></path>
  <path d="M83.3418 14.5857H84.3237V11.5487H89.1647V6.43372H83.3418V14.5857Z" fill="black"></path>
  <path d="M98.5266 11.4802V6.43372H92.7266V14.5857H93.6856V11.4802H96.2431L97.8187 14.5857H98.8691L97.2935 11.4802H98.5266Z" fill="black"></path>
  <path d="M41.3945 14.5857H42.3536V11.5487H47.2174V6.43372H41.3945V14.5857Z" fill="black"></path>
  <path d="M56.5787 11.4802V6.43372H50.7559V14.5857H51.7378V11.4802H54.2953L55.8709 14.5857H56.9213L55.3457 11.4802H56.5787Z" fill="black"></path>
  <path d="M2.07226 11.4574C1.93525 11.4574 1.79824 11.4117 1.68407 11.2975C1.47855 11.092 1.45572 10.7495 1.66123 10.5211L12.0511 0.154135C12.2566 -0.0513783 12.5991 -0.0513783 12.8275 0.154135C13.033 0.359648 13.033 0.702169 12.8275 0.930517L2.46045 11.2975C2.34628 11.4117 2.20927 11.4574 2.07226 11.4574ZM30.9811 11.4574C30.8441 11.4574 30.7071 11.4117 30.5929 11.2975L20.2259 0.930517C20.0204 0.725004 20.0204 0.382483 20.2259 0.154135C20.4314 -0.0513783 20.774 -0.0513783 21.0023 0.154135L31.3693 10.5211C31.5748 10.7267 31.5748 11.0692 31.3693 11.2975C31.2551 11.4117 31.1181 11.4574 30.9811 11.4574ZM0.542327 17.4401C0.405318 17.4401 0.268309 17.3944 0.154135 17.2802C-0.0513783 17.0747 -0.0513783 16.7094 0.154135 16.5039L16.1385 0.519493C16.344 0.31398 16.7094 0.31398 16.9149 0.519493L32.8993 16.5039C33.1048 16.7094 33.1048 17.0519 32.8993 17.2802C32.6937 17.4858 32.3512 17.4858 32.1229 17.2802L16.5267 1.68406L0.930519 17.2802C0.816344 17.3716 0.679335 17.4401 0.542327 17.4401Z" fill="#EF5355"></path>
  <path d="M2.16342 20.2487C2.02641 20.2487 1.8894 20.2031 1.77523 20.0889C1.56972 19.8834 1.56972 19.518 1.77523 19.3125L16.1383 4.94942C16.3438 4.74391 16.7092 4.74391 16.9147 4.94942L31.2778 19.3125C31.4833 19.518 31.4833 19.8606 31.2778 20.0889C31.0723 20.2944 30.7298 20.2944 30.5014 20.0889L16.5265 6.114L2.55161 20.0889C2.43744 20.1802 2.30043 20.2487 2.16342 20.2487Z" fill="#EF5355"></path>
  <path d="M3.78451 23.0575C3.64751 23.0575 3.5105 23.0119 3.39632 22.8977C3.19081 22.6922 3.19081 22.3268 3.39632 22.1213L16.1381 9.37948C16.3437 9.17396 16.6862 9.17396 16.9145 9.37948L29.6564 22.1213C29.8619 22.3268 29.8619 22.6693 29.6564 22.8977C29.4508 23.1032 29.1083 23.1032 28.88 22.8977L16.5263 10.5441L4.17271 22.8977C4.05853 23.0119 3.92152 23.0575 3.78451 23.0575Z" fill="#EF5355"></path>
  <path d="M5.40561 25.8662C5.2686 25.8662 5.13159 25.8205 5.01742 25.7063C4.8119 25.5008 4.8119 25.1355 5.01742 24.93L16.138 13.8094C16.3435 13.6039 16.686 13.6039 16.9144 13.8094L28.0349 24.93C28.2404 25.1355 28.2404 25.478 28.0349 25.7063C27.8294 25.9119 27.464 25.9119 27.2585 25.7063L16.5262 14.974L5.7938 25.7063C5.67963 25.8205 5.54262 25.8662 5.40561 25.8662Z" fill="#EF5355"></path>
  <path d="M7.0267 28.6749C6.88969 28.6749 6.75268 28.6292 6.63851 28.515C6.433 28.3095 6.433 27.9441 6.63851 27.7386L16.1378 18.2393C16.3433 18.0338 16.6858 18.0338 16.9142 18.2393L26.4135 27.7386C26.619 27.9441 26.619 28.2867 26.4135 28.515C26.2079 28.7205 25.8654 28.7205 25.6371 28.515L16.526 19.4039L7.41489 28.515C7.32355 28.6292 7.16371 28.6749 7.0267 28.6749Z" fill="#EF5355"></path>
  <path d="M23.3538 30.4559C23.2168 30.4559 23.0798 30.4103 22.9656 30.2961L16.5262 23.8567L10.0868 30.2961C9.88125 30.5016 9.53873 30.5016 9.31038 30.2961C9.10487 30.0906 9.10487 29.7252 9.31038 29.5197L16.138 22.6921C16.3435 22.4866 16.686 22.4866 16.9144 22.6921L23.742 29.5197C23.9475 29.7252 23.9475 30.0677 23.742 30.2961C23.6278 30.3874 23.4908 30.4559 23.3538 30.4559Z" fill="#EF5355"></path>
  <path d="M18.9236 30.4559C18.7866 30.4559 18.6496 30.4102 18.5354 30.2961L16.5259 28.2866L14.5165 30.2961C14.3109 30.5016 13.9684 30.5016 13.7401 30.2961C13.5346 30.0906 13.5346 29.7252 13.7401 29.5197L16.1377 27.122C16.3432 26.9165 16.7086 26.9165 16.9141 27.122L19.3118 29.5197C19.5173 29.7252 19.5173 30.0677 19.3118 30.2961C19.1976 30.3874 19.0606 30.4559 18.9236 30.4559Z" fill="#EF5355"></path>
  <path d="M42.2623 21.8016H42.7646C42.8331 21.8016 42.9245 21.8016 43.0158 21.8016C43.1071 21.8016 43.1756 21.7787 43.2442 21.7559C43.3127 21.7331 43.3812 21.6874 43.4268 21.6189C43.4725 21.5504 43.4953 21.4819 43.4953 21.3677C43.4953 21.2764 43.4725 21.185 43.4268 21.1165C43.3812 21.048 43.3355 21.0024 43.267 20.9795C43.1985 20.9567 43.13 20.9338 43.0386 20.911C42.9473 20.8882 42.8788 20.8882 42.8103 20.8882H42.2394V21.8016H42.2623ZM41.3945 20.1803H42.9245C43.13 20.1803 43.3127 20.2031 43.4953 20.2488C43.678 20.2945 43.8379 20.363 43.9749 20.4543C44.1119 20.5457 44.226 20.6598 44.2946 20.8197C44.3859 20.9795 44.4087 21.1622 44.4087 21.3905C44.4087 21.6646 44.3402 21.9157 44.1804 22.0984C44.0434 22.3039 43.815 22.4181 43.541 22.4638L44.5457 24.1307H43.5182L42.6961 22.5551H42.2623V24.1307H41.3945V20.1803Z" fill="black"></path>
  <path d="M46.3711 20.1803H49.0428V20.9795H47.2388V21.7102H48.9514V22.5095H47.2388V23.3087H49.1341V24.1079H46.3711V20.1803Z" fill="black"></path>
  <path d="M51.1895 20.1803H52.354L54.0438 22.9205V20.1803H54.9115V24.1079H53.7926L52.0572 21.322V24.1079H51.1895V20.1803Z" fill="black"></path>
  <path d="M57.7441 22.144C57.7441 22.3267 57.7669 22.5094 57.8354 22.6464C57.9039 22.8062 57.9724 22.9432 58.0866 23.0574C58.2008 23.1716 58.3149 23.2629 58.4748 23.3314C58.6346 23.3999 58.7945 23.4228 58.9772 23.4228C59.1598 23.4228 59.3425 23.3999 59.4795 23.3314C59.6394 23.2629 59.7535 23.1716 59.8677 23.0574C59.9819 22.9432 60.0504 22.8062 60.1189 22.6464C60.1874 22.4865 60.2102 22.3267 60.2102 22.144C60.2102 21.9613 60.1874 21.8015 60.1189 21.6416C60.0504 21.4818 59.9819 21.3448 59.8677 21.2306C59.7535 21.1164 59.6394 21.0251 59.4795 20.9566C59.3197 20.8881 59.1598 20.8653 58.9772 20.8653C58.7945 20.8653 58.6346 20.8881 58.4748 20.9566C58.3149 21.0251 58.2008 21.1164 58.0866 21.2306C57.9724 21.3448 57.9039 21.4818 57.8354 21.6416C57.7669 21.8015 57.7441 21.9613 57.7441 22.144ZM56.8535 22.144C56.8535 21.8243 56.8992 21.5503 57.0134 21.2763C57.1275 21.0251 57.2645 20.7968 57.4472 20.6141C57.6299 20.4314 57.8582 20.2944 58.1323 20.2031C58.3834 20.1117 58.6803 20.066 58.9772 20.066C59.2968 20.066 59.5709 20.1117 59.822 20.2031C60.0732 20.2944 60.3016 20.4314 60.5071 20.6141C60.6898 20.7968 60.8496 21.0023 60.9409 21.2763C61.0551 21.5275 61.1008 21.8243 61.1008 22.144C61.1008 22.4637 61.0551 22.7377 60.9409 23.0117C60.8268 23.2629 60.6898 23.4913 60.5071 23.6739C60.3244 23.8566 60.0961 23.9936 59.822 24.085C59.5709 24.1763 59.274 24.222 58.9772 24.222C58.6803 24.222 58.3834 24.1763 58.1323 24.085C57.8811 23.9936 57.6527 23.8566 57.4472 23.6739C57.2645 23.4913 57.1047 23.2858 57.0134 23.0117C56.8992 22.7606 56.8535 22.4637 56.8535 22.144Z" fill="black"></path>
  <path d="M62.6309 20.1803H63.6356L64.6175 22.7606L65.6222 20.1803H66.5356L64.9143 24.1079H64.2293L62.6309 20.1803Z" fill="black"></path>
  <path d="M69.6182 21.322L69.1387 22.5551H70.0978L69.6182 21.322ZM69.2757 20.1803H69.9836L71.6962 24.1307H70.7143L70.3718 23.2858H68.8647L68.545 24.1307H67.5859L69.2757 20.1803Z" fill="black"></path>
  <path d="M73.7048 20.9339H72.5859V20.1803H75.6915V20.9339H74.5726V24.1079H73.7048V20.9339Z" fill="black"></path>
  <path d="M77.4727 24.1079H78.3404V20.1803H77.4727V24.1079Z" fill="black"></path>
  <path d="M81.1484 22.144C81.1484 22.3267 81.1712 22.5094 81.2397 22.6464C81.3082 22.8062 81.3767 22.9432 81.4909 23.0574C81.6051 23.1716 81.7192 23.2629 81.8791 23.3314C82.0389 23.3999 82.1988 23.4228 82.3815 23.4228C82.5641 23.4228 82.7468 23.3999 82.8838 23.3314C83.0437 23.2629 83.1578 23.1716 83.272 23.0574C83.3862 22.9432 83.4547 22.8062 83.5232 22.6464C83.5917 22.4865 83.6145 22.3267 83.6145 22.144C83.6145 21.9613 83.5917 21.8015 83.5232 21.6416C83.4547 21.4818 83.3862 21.3448 83.272 21.2306C83.1578 21.1164 83.0437 21.0251 82.8838 20.9566C82.724 20.8881 82.5641 20.8653 82.3815 20.8653C82.1988 20.8653 82.0389 20.8881 81.8791 20.9566C81.7192 21.0251 81.6051 21.1164 81.4909 21.2306C81.3767 21.3448 81.3082 21.4818 81.2397 21.6416C81.1712 21.8015 81.1484 21.9613 81.1484 22.144ZM80.2578 22.144C80.2578 21.8243 80.3035 21.5503 80.4177 21.2763C80.5318 21.0251 80.6688 20.7968 80.8515 20.6141C81.0342 20.4314 81.2625 20.2944 81.5366 20.2031C81.7877 20.1117 82.0846 20.066 82.3815 20.066C82.7011 20.066 82.9752 20.1117 83.2263 20.2031C83.4775 20.2944 83.7059 20.4314 83.9114 20.6141C84.0941 20.7968 84.2539 21.0023 84.3452 21.2763C84.4594 21.5275 84.5051 21.8243 84.5051 22.144C84.5051 22.4637 84.4594 22.7377 84.3452 23.0117C84.2311 23.2629 84.0941 23.4913 83.9114 23.6739C83.7287 23.8566 83.5004 23.9936 83.2263 24.085C82.9752 24.1763 82.6783 24.222 82.3815 24.222C82.0846 24.222 81.7877 24.1763 81.5366 24.085C81.2854 23.9936 81.057 23.8566 80.8515 23.6739C80.6688 23.4913 80.509 23.2858 80.4177 23.0117C80.3035 22.7606 80.2578 22.4637 80.2578 22.144Z" fill="black"></path>
  <path d="M86.4238 20.1803H87.6112L89.301 22.9205V20.1803H90.1687V24.1079H89.027L87.3144 21.322H87.2916V24.1079H86.4238V20.1803Z" fill="black"></path>
  <path d="M46.2354 7.34717H42.3535V10.6125H46.2354V7.34717Z" fill="#FFF9F9"></path>
  <path d="M55.6659 7.34717H51.7383V10.6354H55.6659V7.34717Z" fill="#FFF9F9"></path>
  <path d="M75.6459 10.27L72.8372 6.43372H71.627V14.5857H72.6088V7.7353L75.6002 11.8456H75.6915L78.7057 7.7353V14.5857H79.6648V6.43372H78.4774L75.6459 10.27Z" fill="black"></path>
  <path d="M88.2042 7.34717H84.3223V10.6125H88.2042V7.34717Z" fill="#FFF9F9"></path>
  <path d="M97.6131 7.34717H93.6855V10.6354H97.6131V7.34717Z" fill="#FFF9F9"></path>
  <path d="M105.035 10.4983L102.637 6.43372H101.541L104.555 11.6401V14.5857H105.514V11.6401L108.528 6.43372H107.432L105.035 10.4983Z" fill="black"></path>
  <path d="M112.547 6.43372H111.588V14.5857H116.497V13.6495H112.547V6.43372Z" fill="black"></path>
  <path d="M124.923 7.34717H120.516V10.407H124.923V7.34717Z" fill="#FFF9F9"></path>
  <path fill-rule="evenodd" clip-rule="evenodd" d="M61.785 6.43372H66.4204L68.7724 10.4983L66.4204 14.5857H61.785L59.4102 10.4983L61.785 6.43372ZM62.3789 13.6495H65.827L67.6538 10.4983L65.827 7.34712H62.3789L60.5293 10.4983L62.3789 13.6495Z" fill="black"></path>
  <path d="M134.058 13.6495H130.61L130.587 13.6723L130.564 13.6495V7.34711H134.058L135.884 10.4983L134.058 13.6495ZM134.651 6.43372H129.582V14.5857H134.651L137.003 10.5211L134.651 6.43372Z" fill="black"></path>
</svg>
