<?xml version="1.0" encoding="UTF-8"?>
<svg xmlns="http://www.w3.org/2000/svg" width="25" height="23" viewBox="0 0 25 23" fill="none">
  <path d="M6.75 8.5C9.09315 8.5 11 6.59315 11 4.25C11 1.90685 9.09315 0 6.75 0C4.40686 0 2.5 1.90685 2.5 4.25C2.5 6.5941 4.40686 8.5 6.75 8.5ZM6.75 2.50962C7.70965 2.50962 8.49038 3.29035 8.49038 4.25C8.49038 5.20965 7.70965 5.99038 6.75 5.99038C5.79036 5.99038 5.00963 5.20965 5.00963 4.25C5.00963 3.29035 5.79036 2.50962 6.75 2.50962Z" fill="#F76C2E"></path>
  <path d="M18.25 8.5C20.5931 8.5 22.5 6.59315 22.5 4.25C22.5 1.90685 20.5931 0 18.25 0C15.9068 0 14 1.90685 14 4.25C14 6.5941 15.9059 8.5 18.25 8.5ZM18.25 2.50962C19.2096 2.50962 19.9904 3.29035 19.9904 4.25C19.9904 5.20965 19.2096 5.99038 18.25 5.99038C17.2903 5.99038 16.5096 5.20965 16.5096 4.25C16.5096 3.29035 17.2903 2.50962 18.25 2.50962Z" fill="#F76C2E"></path>
  <path d="M20.4403 10.7991H15.783C14.5001 10.7991 13.3311 11.47 12.4976 12.5588C11.668 11.4748 10.5046 10.7991 9.21702 10.7991H4.55968C2.04517 10.7991 0 13.3742 0 16.5402V20.3903C0 21.8289 0.930139 23 2.07267 23H22.9273C24.0699 23 25 21.8301 25 20.3903V16.5402C25 13.3754 22.9548 10.7991 20.4403 10.7991ZM11.2897 19.8686H2.48701V16.5402C2.48701 15.1016 3.41715 13.9305 4.55968 13.9305H9.21702C10.3595 13.9305 11.2897 15.1004 11.2897 16.5402V19.8686ZM22.513 19.8686H13.7767V16.5402C13.7767 16.3564 13.7691 16.1737 13.7558 15.9934C13.9559 14.802 14.796 13.9305 15.783 13.9305H20.4403C21.5829 13.9305 22.513 15.1004 22.513 16.5402V19.8686Z" fill="#F76C2E"></path>
</svg>
