<?xml version="1.0" encoding="UTF-8"?>
<svg xmlns="http://www.w3.org/2000/svg" width="154" height="32" viewBox="0 0 154 32" fill="none">
  <g clip-path="url(#clip0_799_9250)">
    <path d="M17.4459 16L15.4827 14.0055L13.5195 16L15.4827 18.0387L17.4459 16Z" fill="black"></path>
    <path d="M5.87949 4.03329L3.9163 1.99451L1.95312 4.03329L2.03848 4.07761L3.9163 6.02775L5.79413 4.07761L5.87949 4.03329Z" fill="black"></path>
    <path d="M25.1289 3.98897L25.1716 4.07761L27.0494 6.02775L28.9272 4.07761L29.0126 3.98897L27.0494 1.99451L25.1289 3.98897Z" fill="black"></path>
    <path d="M26.7918 17.6399L30.9316 21.9391L27.0479 25.9723L21.6278 20.3879L17.7441 16.3546H24.7433C24.914 17.1524 25.5542 17.7286 26.3651 17.7286C26.4931 17.7286 26.5785 17.7286 26.7065 17.6843C26.7492 17.6843 26.7492 17.6843 26.7918 17.6399Z" fill="#6C150F"></path>
    <path d="M13.0502 6.42658L12.1113 5.45151L14.1172 3.36841L15.0561 4.34348L13.0502 6.42658Z" fill="#831811"></path>
    <path d="M11.4721 4.83101L10.5332 3.85594L12.5817 1.72852L13.478 2.70358L11.4721 4.83101Z" fill="#831811"></path>
    <path d="M9.8061 3.05817L8.86719 2.0831L10.873 0L11.812 0.975069L9.8061 3.05817Z" fill="#831811"></path>
    <path d="M3.27701 15.9114C3.27701 16.266 3.02094 16.5319 2.67952 16.5319C2.3381 16.5319 2.08203 16.266 2.08203 15.9114C2.08203 15.5568 2.3381 15.2909 2.67952 15.2909C2.97827 15.2909 3.27701 15.5568 3.27701 15.9114Z" fill="#831811"></path>
    <path d="M3.91718 26.0166L0.0761719 22.0277L4.98412 16.9308L8.18496 16.4875C7.50211 16.133 6.30713 15.7784 5.4109 15.5568L0.0761719 10.0166L3.91718 6.02771L9.33726 11.6565L13.5624 16L3.91718 26.0166Z" fill="#831811"></path>
    <path d="M27.0482 6.02771L30.9319 10.061L26.7921 14.3601C26.7495 14.3601 26.7068 14.3601 26.7068 14.3158C26.6641 14.3158 26.6214 14.3158 26.6214 14.3158C26.5361 14.3158 26.4934 14.3158 26.408 14.3158C25.5972 14.3158 24.957 14.892 24.7863 15.6898H17.7871L27.0482 6.02771Z" fill="#6C150F"></path>
    <path d="M21.2873 0L25.1283 3.98892L15.4831 14.0055L15.0136 13.518L5.83789 3.98892L9.72157 0L15.4831 5.98338L21.2873 0Z" fill="#831811"></path>
    <path d="M25.0859 28.0111L21.2449 32L15.8675 26.4155V25.6621L17.4466 27.302C17.5319 27.3906 17.6173 27.4349 17.7026 27.4349C17.788 27.4349 17.916 27.3906 17.9587 27.302C18.1294 27.1247 18.1294 26.9031 17.9587 26.7258L15.8248 24.5097V23.7119L17.1051 25.0416C17.2758 25.2189 17.4892 25.2189 17.6599 25.0416C17.8307 24.9086 17.8307 24.6427 17.6599 24.4654L15.8675 22.5596V21.7618L16.9344 22.8698C16.9771 22.9142 17.0625 22.9585 17.1478 22.9585C17.2332 22.9585 17.3185 22.9142 17.4039 22.8698C17.5319 22.7369 17.5319 22.5153 17.4039 22.3823L15.4834 20.3878L13.5629 22.3823C13.4348 22.5153 13.4348 22.7369 13.5629 22.8698C13.6909 23.0028 13.9043 23.0028 14.0323 22.8698L15.0993 21.7618V22.5596L13.2641 24.4654C13.0934 24.5984 13.0934 24.8643 13.2641 25.0416C13.3495 25.1302 13.4348 25.1746 13.5202 25.1746C13.6055 25.1746 13.7336 25.1302 13.7763 25.0416L15.0566 23.7119V24.4654L12.88 26.7258C12.7093 26.9031 12.7093 27.1247 12.88 27.302C13.0507 27.4793 13.2641 27.4793 13.4348 27.302L15.0566 25.6178V26.4155L9.72186 32L5.88086 28.0111L15.4834 18.0388L25.0859 28.0111Z" fill="#831811"></path>
    <path d="M25.0849 28.0111L21.2439 32L15.8665 26.4155V25.6621L17.4456 27.302C17.531 27.3906 17.6163 27.4349 17.7017 27.4349C17.787 27.4349 17.9151 27.3906 17.9577 27.302C18.1284 27.1247 18.1284 26.9031 17.9577 26.7258L15.8238 24.5097V23.7119L17.1042 25.0416C17.2749 25.2189 17.4883 25.2189 17.659 25.0416C17.8297 24.9086 17.8297 24.6427 17.659 24.4654L15.8665 22.5596V21.7618L16.9335 22.8698C16.9761 22.9142 17.0615 22.9585 17.1469 22.9585C17.2322 22.9585 17.3176 22.9142 17.4029 22.8698C17.531 22.7369 17.531 22.5153 17.4029 22.3823L15.4824 20.3878V18.0388L25.0849 28.0111Z" fill="#C81517"></path>
    <path d="M21.2866 0L25.1276 3.98892L15.4824 14.0055V5.98338L21.2866 0Z" fill="#C81517"></path>
    <path d="M27.0482 6.02771L30.9319 10.061L26.7921 14.3601C26.7495 14.3601 26.7068 14.3601 26.7068 14.3158C26.6641 14.3158 26.6214 14.3158 26.6214 14.3158C26.5361 14.3158 26.4934 14.3158 26.408 14.3158C25.5972 14.3158 24.957 14.892 24.7863 15.6898H17.7871L27.0482 6.02771Z" fill="#C81517"></path>
    <path d="M26.7918 17.6399L30.9316 21.9391L27.0479 25.9723L21.6278 20.3879L17.7441 16.3546H24.7433C24.914 17.1524 25.5542 17.7286 26.3651 17.7286C26.4931 17.7286 26.5785 17.7286 26.7065 17.6843C26.7492 17.6843 26.7492 17.6843 26.7918 17.6399Z" fill="#C81517"></path>
    <path d="M35.243 20.3435C35.1576 20.3435 35.0723 20.2992 35.0723 20.1663V9.88371C35.0723 9.79506 35.1149 9.70642 35.243 9.70642H36.566C36.6513 9.70642 36.7367 9.75074 36.7367 9.88371V20.2106C36.7367 20.2992 36.694 20.3879 36.566 20.3879H35.243V20.3435Z" fill="black"></path>
    <path d="M40.4505 18.8366H42.2429C42.8404 18.8366 43.1818 18.5707 43.1818 18.1275C43.1818 17.64 42.7551 17.3297 41.9869 17.3297H40.4505V18.8366ZM40.4505 15.9114H41.8588C42.5417 15.9114 42.9258 15.6455 42.9258 15.158C42.9258 14.7147 42.627 14.4931 42.1149 14.4931H40.4078V15.9114H40.4505ZM41.9869 12.9862C43.5659 12.9862 44.5475 13.7397 44.5475 14.9807C44.5475 15.8671 43.9927 16.3546 43.6513 16.4876C43.4806 16.5319 43.4806 16.6206 43.6513 16.7092C44.0781 16.8422 44.8463 17.2854 44.8463 18.3048C44.8463 19.5901 43.8647 20.3436 42.2429 20.3436H39.0848C38.9994 20.3436 38.9141 20.2992 38.9141 20.1663V13.1192C38.9141 13.0305 38.9567 12.9419 39.0848 12.9419H41.9869V12.9862Z" fill="black"></path>
    <path d="M48.6435 17.1966C47.918 17.1966 47.5765 17.5512 47.5765 18.0831C47.5765 18.6593 47.9606 19.0581 48.6862 19.0581C49.8385 19.0581 50.4786 18.482 50.4786 17.3296V17.241H48.6435V17.1966ZM47.2778 13.0304C47.7899 12.8975 48.2594 12.8088 48.8569 12.8088C50.8201 12.8088 52.0577 13.8726 52.0577 15.734V20.2105C52.0577 20.2991 52.015 20.3878 51.887 20.3878H51.1615C51.0761 20.3878 50.9908 20.3435 50.9908 20.2548L50.8627 19.7673C50.7774 19.5457 50.692 19.5457 50.4786 19.723C50.0092 20.2548 49.369 20.5207 48.4728 20.5207C46.851 20.5207 45.9121 19.6343 45.9121 18.216C45.9121 16.7978 46.851 15.867 48.6008 15.867H50.436V15.7784C50.436 14.8476 49.8811 14.3601 48.7715 14.3601C48.3447 14.3601 47.9606 14.4044 47.6192 14.493L47.1071 14.6703C47.0217 14.7147 46.9364 14.6703 46.8937 14.5374L46.5523 13.4293C46.5096 13.3407 46.5523 13.2521 46.6803 13.2077L47.2778 13.0304Z" fill="black"></path>
    <path d="M60.0809 20.2106C60.0809 20.2992 60.0382 20.3879 59.9102 20.3879H58.5871C58.5018 20.3879 58.4164 20.3436 58.4164 20.2106V17.374H55.557V20.2106C55.557 20.2992 55.5143 20.3879 55.3863 20.3879H54.0633C53.9779 20.3879 53.8926 20.3436 53.8926 20.2106V13.1192C53.8926 13.0305 53.9353 12.9419 54.0633 12.9419H55.3863C55.4717 12.9419 55.557 12.9862 55.557 13.1192V15.8671H58.4164V13.1192C58.4164 13.0305 58.4591 12.9419 58.5871 12.9419H59.9102C59.9955 12.9419 60.0809 12.9862 60.0809 13.1192V20.2106Z" fill="black"></path>
    <path d="M63.2822 16.6648C63.2822 18.1274 63.9224 19.0138 65.0747 19.0138C66.1416 19.0138 66.8245 18.1274 66.8245 16.6648C66.8245 15.2022 66.1416 14.3601 65.0747 14.3601C63.9651 14.3601 63.2822 15.2022 63.2822 16.6648ZM68.4462 16.6648C68.4462 19.0581 67.1659 20.5207 65.0747 20.5207C62.9835 20.5207 61.7031 19.0138 61.7031 16.6648C61.7031 14.3158 62.9835 12.8088 65.0747 12.8088C67.1659 12.8088 68.4462 14.3158 68.4462 16.6648Z" fill="black"></path>
    <path d="M74.2514 15.6011C74.3367 15.6011 74.4221 15.6454 74.4221 15.7784V16.9307C74.4221 17.0194 74.3794 17.108 74.2514 17.108H70.325C70.2397 17.108 70.1543 17.0637 70.1543 16.9307V15.7784C70.1543 15.6897 70.197 15.6011 70.325 15.6011H74.2514Z" fill="black"></path>
    <path d="M82.6589 17.4183H83.6405C85.0062 17.4183 85.8171 16.4876 85.8171 14.9363C85.8171 13.3851 85.0062 12.4987 83.6405 12.4987H82.6589V17.4183ZM80.0129 12.4987C78.6472 12.4987 77.8363 13.4294 77.8363 14.9363C77.8363 16.4876 78.6472 17.4183 80.0129 17.4183H80.9945V12.4987H80.0129ZM83.6405 10.9917C86.0731 10.9917 87.4815 12.4543 87.4815 14.9807C87.4815 17.507 86.0305 18.9696 83.6405 18.9696H82.6589V20.2106C82.6589 20.2992 82.6162 20.3879 82.4882 20.3879H81.1652C81.0798 20.3879 80.9945 20.3435 80.9945 20.2106V18.9696H80.0129C77.5802 18.9696 76.1719 17.507 76.1719 14.9807C76.1719 12.4543 77.6229 10.9917 80.0129 10.9917H80.9945V9.88371C80.9945 9.79506 81.0371 9.70642 81.1652 9.70642H82.5309C82.6162 9.70642 82.7016 9.75074 82.7016 9.88371V10.9917H83.6405Z" fill="black"></path>
    <path d="M91.2357 18.7479C91.5772 18.9252 92.0039 19.0138 92.4307 19.0138C93.5403 19.0138 94.2232 18.1274 94.2232 16.6648C94.2232 15.2022 93.583 14.3601 92.4734 14.3601C91.3638 14.3601 90.7663 15.2908 90.7663 16.6205V18.5263L91.2357 18.7479ZM90.3822 13.7396C90.4249 13.9169 90.5529 13.8726 90.6809 13.7396C91.2357 13.0748 91.9613 12.8088 92.7295 12.8088C94.65 12.8088 95.8023 14.2714 95.8023 16.6648C95.8023 19.0581 94.5646 20.5207 92.5161 20.5207C92.0039 20.5207 91.6198 20.4321 91.1931 20.2105L90.809 20.0332V23.446C90.809 23.5346 90.7663 23.6232 90.6383 23.6232H89.3152C89.2299 23.6232 89.1445 23.5789 89.1445 23.446V13.1191C89.1445 13.0304 89.1872 12.9418 89.3152 12.9418H90.0408C90.1261 12.9418 90.2115 12.9861 90.2115 13.0748L90.3822 13.7396Z" fill="black"></path>
    <path d="M99.6865 17.1966C98.9609 17.1966 98.6195 17.5512 98.6195 18.0831C98.6195 18.6593 99.0036 19.0581 99.7291 19.0581C100.881 19.0581 101.522 18.482 101.522 17.3296V17.241H99.6865V17.1966ZM98.3208 13.0304C98.8329 12.8975 99.3024 12.8088 99.8998 12.8088C101.863 12.8088 103.101 13.8726 103.101 15.734V20.2105C103.101 20.2991 103.058 20.3878 102.93 20.3878H102.204C102.119 20.3878 102.034 20.3435 102.034 20.2548L101.906 19.7673C101.82 19.5457 101.735 19.5457 101.522 19.723C101.052 20.2548 100.412 20.5207 99.5157 20.5207C97.894 20.5207 96.9551 19.6343 96.9551 18.216C96.9551 16.7978 97.894 15.867 99.6438 15.867H101.479V15.7784C101.479 14.8476 100.924 14.3601 99.8145 14.3601C99.3877 14.3601 99.0036 14.4044 98.6622 14.493L98.1501 14.6703C98.0647 14.7147 97.9793 14.6703 97.9367 14.5374L97.5952 13.4293C97.5526 13.3407 97.5952 13.2521 97.7233 13.2077L98.3208 13.0304Z" fill="black"></path>
    <path d="M111.124 20.2106C111.124 20.2992 111.081 20.3879 110.953 20.3879H109.63C109.545 20.3879 109.459 20.3436 109.459 20.2106V17.374H106.6V20.2106C106.6 20.2992 106.557 20.3879 106.429 20.3879H105.106C105.021 20.3879 104.936 20.3436 104.936 20.2106V13.1192C104.936 13.0305 104.978 12.9419 105.106 12.9419H106.429C106.515 12.9419 106.6 12.9862 106.6 13.1192V15.8671H109.459V13.1192C109.459 13.0305 109.502 12.9419 109.63 12.9419H110.953C111.038 12.9419 111.124 12.9862 111.124 13.1192V20.2106Z" fill="black"></path>
    <path d="M114.923 15.8671C115.649 15.8671 116.075 15.2023 116.459 14.6261L117.441 13.0749C117.484 12.9862 117.569 12.9862 117.654 12.9862H119.105C119.233 12.9862 119.276 13.0749 119.234 13.1635L117.953 15.3352C117.569 15.9114 117.142 16.3546 116.673 16.5319C116.63 16.5762 116.587 16.6206 116.673 16.6649C117.185 16.8865 117.654 17.3297 118.039 17.9059L119.404 20.2106C119.49 20.2992 119.404 20.3879 119.276 20.3879H117.825C117.74 20.3879 117.697 20.3436 117.612 20.2992L116.587 18.615C116.161 17.9945 115.777 17.4627 114.966 17.4627H114.752V20.2549C114.752 20.3436 114.71 20.4322 114.582 20.4322H113.259C113.173 20.4322 113.088 20.3879 113.088 20.2549V13.1192C113.088 13.0305 113.131 12.9419 113.259 12.9419H114.582C114.667 12.9419 114.752 12.9862 114.752 13.1192V15.8671H114.923Z" fill="black"></path>
    <path d="M122.946 10.3269C122.946 10.9917 122.604 11.3463 121.964 11.3463C121.324 11.3463 120.983 10.9474 120.983 10.3269C120.983 9.70639 121.367 9.3075 121.964 9.3075C122.562 9.3075 122.946 9.70639 122.946 10.3269ZM121.495 20.3435C121.409 20.3435 121.324 20.2992 121.324 20.1662V14.4931H120.598C120.513 14.4931 120.428 14.4488 120.428 14.3158V13.1635C120.428 13.0748 120.47 12.9862 120.598 12.9862H122.775C122.86 12.9862 122.946 13.0305 122.946 13.1635V20.2105C122.946 20.2992 122.903 20.3878 122.775 20.3878H121.495V20.3435Z" fill="black"></path>
    <path d="M126.573 18.8366H128.366C128.963 18.8366 129.305 18.5707 129.305 18.1275C129.305 17.64 128.878 17.3297 128.11 17.3297H126.573V18.8366ZM126.573 15.9114H127.982C128.664 15.9114 129.049 15.6455 129.049 15.158C129.049 14.7147 128.75 14.4931 128.238 14.4931H126.531V15.9114H126.573ZM128.067 12.9862C129.646 12.9862 130.628 13.7397 130.628 14.9807C130.628 15.8671 130.073 16.3546 129.731 16.4876C129.561 16.5319 129.561 16.6206 129.731 16.7092C130.158 16.8422 130.926 17.2854 130.926 18.3048C130.926 19.5901 129.945 20.3436 128.323 20.3436H125.165C125.079 20.3436 124.994 20.2992 124.994 20.1663V13.1192C124.994 13.0305 125.037 12.9419 125.165 12.9419H128.067V12.9862Z" fill="black"></path>
    <path d="M136.986 20.3435C136.56 20.4764 136.09 20.5207 135.621 20.5207C133.359 20.5207 132.121 19.0138 132.121 16.6648C132.121 14.3158 133.359 12.8088 135.663 12.8088C136.047 12.8088 136.474 12.8532 136.944 12.9861L137.584 13.1634C137.669 13.2077 137.712 13.2521 137.712 13.385L137.37 14.5374C137.328 14.626 137.285 14.6703 137.2 14.626L136.688 14.493C136.304 14.3601 135.962 14.3158 135.706 14.3158C134.383 14.3158 133.786 15.2022 133.786 16.6205C133.786 18.0831 134.426 18.9695 135.663 18.9695C135.962 18.9695 136.389 18.9252 136.73 18.7922L137.2 18.6593C137.285 18.6149 137.37 18.6593 137.413 18.7479L137.755 19.9003C137.797 19.9889 137.755 20.0775 137.627 20.1219L136.986 20.3435Z" fill="black"></path>
    <path d="M142.535 18.8366C143.218 18.8366 143.602 18.4821 143.602 17.8616C143.602 17.1967 143.048 16.7979 142.109 16.7979H141.084V18.8366H142.535ZM139.591 20.3436C139.505 20.3436 139.42 20.2992 139.42 20.1663V13.1192C139.42 13.0305 139.463 12.9419 139.591 12.9419H140.914C140.999 12.9419 141.084 12.9862 141.084 13.1192V15.2909H142.109C144.072 15.2909 145.224 16.266 145.224 17.8616C145.224 19.4128 144.243 20.3436 142.535 20.3436H139.591Z" fill="black"></path>
    <path d="M148.638 15.8671C149.363 15.8671 149.79 15.2023 150.174 14.6261L151.156 13.0749C151.199 12.9862 151.284 12.9862 151.369 12.9862H152.82C152.948 12.9862 152.991 13.0749 152.948 13.1635L151.668 15.3352C151.284 15.9114 150.857 16.3546 150.388 16.5319C150.345 16.5762 150.302 16.6206 150.388 16.6649C150.9 16.8865 151.369 17.3297 151.753 17.9059L153.119 20.2106C153.204 20.2992 153.119 20.3879 152.991 20.3879H151.54C151.455 20.3879 151.412 20.3436 151.327 20.2992L150.302 18.615C149.876 17.9945 149.491 17.4627 148.681 17.4627H148.467V20.2549C148.467 20.3436 148.424 20.4322 148.296 20.4322H146.973C146.888 20.4322 146.803 20.3879 146.803 20.2549V13.1192C146.803 13.0305 146.845 12.9419 146.973 12.9419H148.296C148.382 12.9419 148.467 12.9862 148.467 13.1192V15.8671H148.638Z" fill="black"></path>
  </g>
  <defs>
    <clipPath id="clip0_799_9250">
      <rect width="153" height="32" fill="white" transform="translate(0.0761719)"></rect>
    </clipPath>
  </defs>
</svg>
