<?xml version="1.0" encoding="UTF-8"?>
<svg xmlns="http://www.w3.org/2000/svg" width="21" height="21" viewBox="0 0 21 21" fill="none">
  <path d="M8.56605 4.90378C9.38543 2.86108 9.79512 1.83972 10.4996 1.83972C11.2041 1.83972 11.6138 2.86108 12.4332 4.90378L12.4714 4.9989C12.9343 6.15293 13.1657 6.72995 13.6374 7.08066C14.1092 7.43138 14.7284 7.48684 15.9668 7.59775L16.1907 7.6178C18.2176 7.79933 19.2311 7.89009 19.4479 8.53486C19.6648 9.17964 18.9121 9.86437 17.4069 11.2338L16.9045 11.6909C16.1425 12.3841 15.7615 12.7308 15.584 13.1851C15.5508 13.2698 15.5233 13.3566 15.5015 13.445C15.3848 13.9186 15.4964 14.4214 15.7195 15.4271L15.789 15.7402C16.199 17.5884 16.4041 18.5126 16.0461 18.9112C15.9123 19.0601 15.7384 19.1674 15.5453 19.2201C15.0284 19.3611 14.2946 18.7631 12.8269 17.5672C11.8632 16.7819 11.3813 16.3893 10.8281 16.3009C10.6105 16.2662 10.3888 16.2662 10.1711 16.3009C9.61791 16.3893 9.13605 16.7819 8.17233 17.5672C6.70467 18.7631 5.97084 19.3611 5.45397 19.2201C5.26082 19.1674 5.08696 19.0601 4.95319 18.9112C4.59519 18.5126 4.80022 17.5884 5.2103 15.7402L5.27976 15.4271C5.50289 14.4214 5.61446 13.9186 5.49773 13.445C5.47596 13.3566 5.44842 13.2698 5.4153 13.1851C5.23772 12.7308 4.85673 12.3841 4.09474 11.6909L3.59236 11.2338C2.08711 9.86437 1.33448 9.17964 1.55134 8.53486C1.76819 7.89009 2.78163 7.79933 4.80852 7.6178L5.03242 7.59775C6.27087 7.48684 6.8901 7.43138 7.36182 7.08066C7.83353 6.72995 8.06499 6.15293 8.5279 4.9989L8.56605 4.90378Z" stroke="#F76C2E" stroke-width="2"></path>
</svg>
