<?xml version="1.0" encoding="UTF-8"?>
<svg xmlns="http://www.w3.org/2000/svg" width="46" height="47" viewBox="0 0 46 47" fill="none">
  <path d="M38.3307 21.5833C37.862 18.2104 36.2973 15.0852 33.8776 12.689C31.458 10.2929 28.3176 8.75877 24.9403 8.32298C21.5629 7.8872 18.136 8.57393 15.1874 10.2774C12.2387 11.9809 9.93196 14.6066 8.6224 17.75M7.66406 10.0833V17.75H15.3307M7.66406 25.4167C8.1328 28.7896 9.69751 31.9148 12.1172 34.311C14.5368 36.7071 17.6772 38.2412 21.0545 38.677C24.4319 39.1128 27.8588 38.4261 30.8074 36.7226C33.7561 35.0192 36.0628 32.3935 37.3724 29.25M38.3307 36.9167V29.25H30.6641" stroke="white" stroke-width="3" stroke-linecap="round" stroke-linejoin="round"></path>
</svg>
