<?xml version="1.0" encoding="UTF-8"?>
<svg xmlns="http://www.w3.org/2000/svg" width="153" height="48" viewBox="0 0 153 48" fill="none">
  <g clip-path="url(#clip0_177_8876)">
    <path d="M88.5732 32.5365V34.2631H89.3148V30.2324H88.5732V31.8971H86.4912V30.2324H85.7437V34.2631H86.4912V32.5365H88.5732Z" fill="#003B71"></path>
    <path d="M93.1514 30.3274C92.8869 30.2255 92.5994 30.1746 92.289 30.1746C91.9786 30.1746 91.6852 30.2265 91.4207 30.3304C91.1562 30.4343 90.9267 30.5792 90.7311 30.7651C90.5354 30.9509 90.3837 31.1698 90.2769 31.4215C90.1691 31.6733 90.1162 31.9481 90.1162 32.2479C90.1162 32.5476 90.1701 32.8174 90.2769 33.0682C90.3847 33.32 90.5354 33.5398 90.7311 33.7277C90.9267 33.9155 91.1572 34.0614 91.4237 34.1653C91.6902 34.2692 91.9786 34.3212 92.289 34.3212C92.5994 34.3212 92.8869 34.2702 93.1514 34.1683C93.4159 34.0664 93.6454 33.9215 93.8391 33.7337C94.0327 33.5458 94.1834 33.326 94.2912 33.0742C94.398 32.8224 94.4519 32.5476 94.4519 32.2479C94.4519 31.9481 94.398 31.6723 94.2912 31.4186C94.1834 31.1648 94.0327 30.9459 93.8391 30.7591C93.6454 30.5732 93.4159 30.4294 93.1514 30.3274ZM93.5915 32.8184C93.5207 32.9913 93.4219 33.1412 93.2951 33.268C93.1684 33.3949 93.0206 33.4929 92.85 33.5618C92.6793 33.6308 92.4927 33.6657 92.289 33.6657C92.0854 33.6657 91.8968 33.6308 91.7221 33.5618C91.5475 33.4929 91.3968 33.3939 91.271 33.2651C91.1443 33.1362 91.0444 32.9853 90.9716 32.8134C90.8987 32.6416 90.8628 32.4527 90.8628 32.2489C90.8628 32.045 90.8987 31.8522 90.9716 31.6813C91.0444 31.5105 91.1443 31.3606 91.271 31.2317C91.3978 31.1028 91.5485 31.0039 91.7221 30.9349C91.8968 30.866 92.0854 30.831 92.289 30.831C92.4927 30.831 92.6793 30.866 92.85 30.9349C93.0206 31.0039 93.1704 31.1018 93.2981 31.2287C93.4269 31.3556 93.5257 31.5055 93.5945 31.6783C93.6634 31.8512 93.6983 32.041 93.6983 32.2489C93.6983 32.4567 93.6624 32.6466 93.5915 32.8194V32.8184Z" fill="#003B71"></path>
    <path d="M98.4951 31.2746C98.4951 30.9368 98.3683 30.6791 98.1148 30.5002C97.8623 30.3213 97.507 30.2324 97.0509 30.2324H95.2504V34.2631H97.1597C97.6657 34.2631 98.047 34.1642 98.3045 33.9664C98.561 33.7685 98.6897 33.4938 98.6897 33.1401C98.6897 32.7863 98.567 32.5395 98.3214 32.3627C98.2027 32.2768 98.0589 32.2128 97.8923 32.1688C97.9801 32.1309 98.0619 32.0859 98.1348 32.032C98.3743 31.8531 98.4941 31.6013 98.4941 31.2746H98.4951ZM95.9929 30.808H96.994C97.2355 30.808 97.4192 30.8559 97.5459 30.9518C97.6727 31.0478 97.7356 31.1896 97.7356 31.3775C97.7356 31.5653 97.6727 31.7072 97.5459 31.8041C97.4192 31.9001 97.2355 31.948 96.994 31.948H95.9929V30.808ZM97.7326 33.5407C97.6008 33.6387 97.4022 33.6876 97.1377 33.6876H95.9929V32.4956H97.1377C97.4022 32.4956 97.6008 32.5445 97.7326 32.6425C97.8653 32.7404 97.9312 32.8873 97.9312 33.0831C97.9312 33.2909 97.8653 33.4428 97.7326 33.5407Z" fill="#003B71"></path>
    <path d="M100.813 30.2324L99.0011 34.2631H99.7667L100.167 33.3299H102.181L102.579 34.2631H103.367L101.549 30.2324H100.813ZM100.418 32.7434L101.175 30.9788L101.928 32.7434H100.417H100.418Z" fill="#003B71"></path>
    <path d="M108.532 33.6307H106.26V32.5246H108.204V31.9081H106.26V30.8659H108.451V30.2324H105.513V34.2631H108.532V33.6307Z" fill="#003B71"></path>
    <path d="M112.795 30.2324H112L110.839 31.926H110.068V30.2324H109.337V34.2631H110.068V32.5645H110.821L112 34.2631H112.845L111.414 32.1828L112.795 30.2324Z" fill="#003B71"></path>
    <path d="M117.493 32.2479C117.493 31.9481 117.44 31.6723 117.333 31.4186C117.225 31.1648 117.074 30.9459 116.882 30.7591C116.688 30.5732 116.458 30.4294 116.194 30.3274C115.929 30.2255 115.642 30.1746 115.332 30.1746C115.021 30.1746 114.728 30.2265 114.463 30.3304C114.199 30.4343 113.968 30.5792 113.773 30.7651C113.577 30.9509 113.425 31.1698 113.319 31.4215C113.211 31.6733 113.158 31.9481 113.158 32.2479C113.158 32.5476 113.212 32.8174 113.319 33.0682C113.425 33.32 113.577 33.5398 113.773 33.7277C113.968 33.9155 114.199 34.0614 114.466 34.1653C114.733 34.2692 115.021 34.3212 115.332 34.3212C115.642 34.3212 115.929 34.2702 116.194 34.1683C116.458 34.0664 116.688 33.9215 116.882 33.7337C117.075 33.5458 117.226 33.326 117.333 33.0742C117.441 32.8224 117.493 32.5476 117.493 32.2479ZM116.634 32.8184C116.563 32.9913 116.464 33.1412 116.338 33.268C116.211 33.3949 116.062 33.4929 115.892 33.5618C115.721 33.6308 115.534 33.6657 115.331 33.6657C115.127 33.6657 114.938 33.6308 114.764 33.5618C114.589 33.4929 114.438 33.3939 114.313 33.2651C114.186 33.1362 114.087 32.9853 114.014 32.8134C113.941 32.6406 113.904 32.4527 113.904 32.2489C113.904 32.045 113.94 31.8522 114.014 31.6813C114.087 31.5105 114.187 31.3606 114.313 31.2317C114.439 31.1028 114.59 31.0039 114.764 30.9349C114.938 30.866 115.127 30.831 115.331 30.831C115.534 30.831 115.721 30.866 115.892 30.9349C116.062 31.0039 116.212 31.1018 116.341 31.2287C116.468 31.3556 116.568 31.5055 116.637 31.6783C116.706 31.8512 116.741 32.041 116.741 32.2489C116.741 32.4567 116.705 32.6466 116.635 32.8194L116.634 32.8184Z" fill="#003B71"></path>
    <path d="M121.122 31.8971H119.04V30.2324H118.293V34.2631H119.04V32.5365H121.122V34.2631H121.865V30.2324H121.122V31.8971Z" fill="#003B71"></path>
    <path d="M127.001 32.2479C127.001 31.9481 126.947 31.6723 126.84 31.4186C126.733 31.1648 126.582 30.9459 126.389 30.7591C126.196 30.5732 125.966 30.4294 125.702 30.3274C125.437 30.2255 125.149 30.1746 124.839 30.1746C124.53 30.1746 124.235 30.2265 123.971 30.3304C123.706 30.4343 123.477 30.5792 123.281 30.7651C123.086 30.9509 122.934 31.1698 122.827 31.4215C122.719 31.6733 122.667 31.9481 122.667 32.2479C122.667 32.5476 122.72 32.8174 122.827 33.0682C122.935 33.32 123.086 33.5398 123.281 33.7277C123.477 33.9155 123.707 34.0614 123.974 34.1653C124.24 34.2692 124.529 34.3212 124.839 34.3212C125.15 34.3212 125.437 34.2702 125.702 34.1683C125.966 34.0664 126.195 33.9215 126.389 33.7337C126.583 33.5458 126.734 33.326 126.84 33.0742C126.947 32.8224 127.001 32.5476 127.001 32.2479ZM126.142 32.8184C126.071 32.9913 125.972 33.1412 125.845 33.268C125.719 33.3949 125.571 33.4929 125.4 33.5618C125.23 33.6308 125.043 33.6657 124.839 33.6657C124.636 33.6657 124.447 33.6308 124.272 33.5618C124.098 33.4929 123.947 33.3939 123.821 33.2651C123.695 33.1362 123.595 32.9853 123.522 32.8134C123.449 32.6406 123.412 32.4527 123.412 32.2489C123.412 32.045 123.448 31.8522 123.522 31.6813C123.595 31.5105 123.695 31.3606 123.821 31.2317C123.948 31.1028 124.099 31.0039 124.272 30.9349C124.447 30.866 124.636 30.831 124.839 30.831C125.043 30.831 125.23 30.866 125.4 30.9349C125.571 31.0039 125.721 31.1018 125.848 31.2287C125.977 31.3556 126.076 31.5055 126.145 31.6783C126.214 31.8512 126.248 32.041 126.248 32.2489C126.248 32.4567 126.213 32.6466 126.142 32.8194V32.8184Z" fill="#003B71"></path>
    <path d="M131.591 30.2324L130.014 32.9042L128.416 30.2324H127.801V34.2631H128.52V31.6383L129.837 33.8085H130.176L131.493 31.5953V34.2631H132.212L132.201 30.2324H131.591Z" fill="#003B71"></path>
    <path d="M134.054 30.2324H133.311V34.2631H134.054V30.2324Z" fill="#003B71"></path>
    <path d="M135.157 30.2324V34.2631H135.888V32.5645H136.642L137.82 34.2631H138.667L137.233 32.1828L138.615 30.2324H137.82L136.66 31.926H135.888V30.2324H135.157Z" fill="#003B71"></path>
    <path d="M141.948 33.3309L142.348 34.2641H143.135L141.318 30.2334H140.581L138.768 34.2641H139.534L139.934 33.3309H141.948ZM140.943 30.9798L141.697 32.7434H140.186L140.942 30.9798H140.943Z" fill="#003B71"></path>
    <path d="M86.4853 37.1428H85.7437V41.1735H86.4853V37.1428Z" fill="#003B71"></path>
    <path d="M90.6612 39.2731C90.5424 39.1872 90.3987 39.1232 90.232 39.0792C90.3199 39.0413 90.4017 38.9963 90.4746 38.9424C90.7141 38.7635 90.8339 38.5117 90.8339 38.185C90.8339 37.8582 90.7071 37.5885 90.4546 37.4106C90.2011 37.2317 89.8468 37.1428 89.3906 37.1428H87.5901V41.1735H89.4994C90.0055 41.1735 90.3867 41.0746 90.6442 40.8768C90.9007 40.6789 91.0295 40.4042 91.0295 40.0505C91.0295 39.6967 90.9067 39.4499 90.6612 39.2731ZM88.3317 37.7184H89.3328C89.5743 37.7184 89.7589 37.7663 89.8847 37.8622C90.0114 37.9582 90.0743 38.1 90.0743 38.2889C90.0743 38.4777 90.0114 38.6186 89.8847 38.7155C89.7579 38.8115 89.5743 38.8594 89.3328 38.8594H88.3317V37.7194V37.7184ZM90.0713 40.4501C89.9386 40.5481 89.74 40.597 89.4755 40.597H88.3307V39.405H89.4755C89.74 39.405 89.9386 39.4539 90.0713 39.5519C90.2031 39.6498 90.2699 39.7967 90.2699 39.9925C90.2699 40.1993 90.2041 40.3522 90.0713 40.4501Z" fill="#003B71"></path>
    <path d="M93.1514 37.1428L91.3399 41.1735H92.1054L92.5056 40.2403H94.5197L94.919 41.1735H95.7065L93.889 37.1428H93.1524H93.1514ZM92.7571 39.6538L93.5137 37.8892L94.2682 39.6538H92.7571Z" fill="#003B71"></path>
    <path d="M99.1219 38.8075H97.0399V37.1428H96.2924V41.1735H97.0399V39.4459H99.1219V41.1735H99.8635V37.1428H99.1219V38.8075Z" fill="#003B71"></path>
    <path d="M104.388 37.6695C104.194 37.4836 103.965 37.3398 103.7 37.2378C103.436 37.1359 103.148 37.085 102.838 37.085C102.527 37.085 102.234 37.1369 101.969 37.2408C101.705 37.3447 101.474 37.4896 101.279 37.6755C101.083 37.8613 100.931 38.0802 100.825 38.3319C100.717 38.5837 100.664 38.8585 100.664 39.1583C100.664 39.458 100.718 39.7278 100.825 39.9786C100.932 40.2304 101.083 40.4502 101.279 40.6381C101.474 40.8259 101.705 40.9718 101.971 41.0757C102.238 41.1796 102.526 41.2316 102.838 41.2316C103.149 41.2316 103.436 41.1806 103.7 41.0787C103.965 40.9768 104.194 40.8319 104.388 40.6441C104.581 40.4562 104.732 40.2364 104.84 39.9846C104.948 39.7328 105.001 39.458 105.001 39.1583C105.001 38.8585 104.947 38.5827 104.84 38.329C104.732 38.0752 104.581 37.8563 104.388 37.6695ZM104.14 39.7278C104.069 39.9007 103.971 40.0506 103.844 40.1774C103.717 40.3043 103.568 40.4023 103.398 40.4712C103.227 40.5402 103.04 40.5751 102.837 40.5751C102.633 40.5751 102.444 40.5402 102.27 40.4712C102.095 40.4023 101.944 40.3033 101.819 40.1745C101.692 40.0456 101.592 39.8947 101.519 39.7228C101.446 39.55 101.41 39.3621 101.41 39.1583C101.41 38.9544 101.446 38.7616 101.519 38.5907C101.592 38.4199 101.692 38.27 101.819 38.1411C101.945 38.0122 102.096 37.9133 102.27 37.8443C102.444 37.7754 102.633 37.7404 102.837 37.7404C103.04 37.7404 103.227 37.7754 103.398 37.8443C103.568 37.9133 103.718 38.0112 103.846 38.1381C103.975 38.265 104.073 38.4149 104.142 38.5877C104.211 38.7606 104.246 38.9504 104.246 39.1583C104.246 39.3661 104.21 39.556 104.139 39.7288L104.14 39.7278Z" fill="#003B71"></path>
    <path d="M107.134 39.2681H105.547V39.8786H107.134V39.2681Z" fill="#003B71"></path>
    <path d="M111.509 37.5915C111.216 37.4756 110.866 37.4096 110.465 37.3906V36.981H109.775V37.3916C109.38 37.4116 109.036 37.4776 108.743 37.5915C108.389 37.7294 108.118 37.9302 107.929 38.193C107.741 38.4558 107.646 38.7755 107.646 39.1522C107.646 39.5289 107.74 39.8466 107.929 40.1084C108.117 40.3692 108.388 40.568 108.743 40.7049C109.036 40.8168 109.38 40.8828 109.775 40.9018V41.3344H110.465V40.9038C110.872 40.8868 111.225 40.8208 111.521 40.7039C111.868 40.568 112.133 40.3672 112.314 40.1024C112.496 39.8376 112.588 39.5209 112.588 39.1522C112.588 38.7835 112.495 38.4568 112.311 38.193C112.128 37.9302 111.86 37.7294 111.509 37.5915ZM109.171 40.2033C108.914 40.1164 108.717 39.9855 108.581 39.8087C108.445 39.6318 108.377 39.413 108.377 39.1522C108.377 38.8914 108.442 38.6676 108.57 38.4927C108.698 38.3179 108.892 38.188 109.151 38.101C109.329 38.0411 109.538 38.0031 109.774 37.9841V40.3172C109.548 40.2983 109.345 40.2613 109.171 40.2023V40.2033ZM111.676 39.7977C111.547 39.9745 111.357 40.1074 111.106 40.1983C110.924 40.2633 110.71 40.3043 110.464 40.3222V37.9831C110.708 38.0001 110.921 38.0411 111.103 38.105C111.352 38.193 111.542 38.3239 111.673 38.4967C111.802 38.6696 111.868 38.8844 111.868 39.1422C111.868 39.4 111.804 39.6218 111.676 39.7987V39.7977Z" fill="#003B71"></path>
    <path d="M115.92 37.3127C115.666 37.1998 115.36 37.1428 115.003 37.1428H113.346V41.1735H114.094V40.0105H115.003C115.36 40.0105 115.666 39.9515 115.92 39.8346C116.176 39.7177 116.372 39.5529 116.51 39.339C116.649 39.1262 116.718 38.8714 116.718 38.5757C116.718 38.2799 116.649 38.0191 116.51 37.8043C116.373 37.5895 116.176 37.4256 115.92 37.3117V37.3127ZM115.714 39.1672C115.547 39.3071 115.299 39.377 114.969 39.377H114.095V37.7763H114.969C115.299 37.7763 115.547 37.8463 115.714 37.9861C115.881 38.126 115.964 38.3229 115.964 38.5767C115.964 38.8304 115.881 39.0273 115.714 39.1672Z" fill="#003B71"></path>
    <path d="M118.753 37.1428L116.941 41.1735H117.706L118.106 40.2403H120.12L120.52 41.1735H121.307L119.49 37.1428H118.753ZM118.358 39.6538L119.114 37.8892L119.869 39.6538H118.358Z" fill="#003B71"></path>
    <path d="M124.724 38.8075H122.642V37.1428H121.894V41.1735H122.642V39.4459H124.724V41.1735H125.465V37.1428H124.724V38.8075Z" fill="#003B71"></path>
    <path d="M130.027 37.1428H129.233L128.072 38.8354H127.301V37.1428H126.57V41.1735H127.301V39.4749H128.054L129.233 41.1735H130.078L128.647 39.0922L130.027 37.1428Z" fill="#003B71"></path>
    <path d="M131.436 37.1428H130.694V41.1735H131.436V37.1428Z" fill="#003B71"></path>
    <path d="M135.612 39.2731C135.493 39.1872 135.349 39.1232 135.182 39.0792C135.27 39.0413 135.352 38.9963 135.425 38.9424C135.664 38.7635 135.784 38.5117 135.784 38.185C135.784 37.8582 135.657 37.5885 135.405 37.4106C135.152 37.2317 134.797 37.1428 134.341 37.1428H132.54V41.1735H134.45C134.956 41.1735 135.338 41.0746 135.595 40.8768C135.852 40.6789 135.98 40.4042 135.98 40.0505C135.98 39.6967 135.857 39.4499 135.612 39.2731ZM133.282 37.7184H134.283C134.525 37.7184 134.709 37.7663 134.835 37.8622C134.962 37.9582 135.025 38.1 135.025 38.2889C135.025 38.4777 134.962 38.6186 134.835 38.7155C134.708 38.8115 134.525 38.8594 134.283 38.8594H133.282V37.7194V37.7184ZM135.023 40.4501C134.89 40.5481 134.691 40.597 134.427 40.597H133.282V39.405H134.427C134.691 39.405 134.89 39.4539 135.023 39.5519C135.154 39.6498 135.221 39.7967 135.221 39.9925C135.221 40.1993 135.155 40.3522 135.023 40.4501Z" fill="#003B71"></path>
    <path d="M137.663 38.1391C137.79 38.0122 137.942 37.9143 138.117 37.8453C138.291 37.7764 138.484 37.7414 138.695 37.7414C138.905 37.7414 139.095 37.7804 139.275 37.8593C139.456 37.9382 139.621 38.0562 139.771 38.214L140.254 37.7594C140.066 37.5366 139.835 37.3687 139.563 37.2558C139.29 37.1429 138.99 37.0859 138.66 37.0859C138.349 37.0859 138.064 37.1369 137.802 37.2388C137.542 37.3407 137.313 37.4856 137.118 37.6735C136.922 37.8613 136.77 38.0801 136.663 38.3299C136.556 38.5797 136.503 38.8555 136.503 39.1593C136.503 39.463 136.557 39.7388 136.663 39.9886C136.771 40.2384 136.922 40.4572 137.115 40.645C137.308 40.8329 137.536 40.9778 137.796 41.0797C138.057 41.1816 138.342 41.2326 138.654 41.2326C138.987 41.2326 139.289 41.1746 139.562 41.0597C139.834 40.9448 140.064 40.7759 140.253 40.5531L139.77 40.0985C139.62 40.2594 139.455 40.3793 139.274 40.4582C139.095 40.5371 138.9 40.5761 138.694 40.5761C138.487 40.5761 138.29 40.5411 138.116 40.4722C137.941 40.4032 137.789 40.3053 137.662 40.1784C137.533 40.0515 137.432 39.9016 137.359 39.7288C137.286 39.5559 137.25 39.3661 137.25 39.1583C137.25 38.9504 137.286 38.7606 137.359 38.5877C137.432 38.4149 137.533 38.265 137.662 38.1381L137.663 38.1391Z" fill="#003B71"></path>
    <path d="M143.895 38.8304C143.634 38.6156 143.262 38.5077 142.779 38.5077H141.663V37.1428H140.921V41.1735H142.658C143.168 41.1735 143.566 41.0576 143.855 40.8248C144.142 40.593 144.286 40.2503 144.286 39.7967C144.286 39.367 144.155 39.0443 143.895 38.8294V38.8304ZM143.294 40.3972C143.134 40.5321 142.911 40.599 142.623 40.599H141.663V39.0842H142.623C142.914 39.0842 143.139 39.1422 143.297 39.2571C143.453 39.372 143.532 39.5569 143.532 39.8097C143.532 40.0625 143.452 40.2623 143.294 40.3972Z" fill="#003B71"></path>
    <path d="M148.473 37.1428H147.679L146.517 38.8354H145.747V37.1428H145.016V41.1735H145.747V39.4749H146.501L147.679 41.1735H148.525L147.092 39.0922L148.473 37.1428Z" fill="#003B71"></path>
    <path d="M150.44 37.1428L148.628 41.1735H149.394L149.794 40.2403H151.808L152.208 41.1735H152.996L151.179 37.1428H150.442H150.44ZM150.046 39.6538L150.802 37.8892L151.557 39.6538H150.046Z" fill="#003B71"></path>
    <path d="M91.1193 11.3438L102.393 22.4308H108.161V6.82251H102.787V17.7187L91.793 6.82251H85.7437V22.4308H91.1193V11.3438Z" fill="#003B71"></path>
    <path d="M131.594 19.6251H116.312V15.6114H129.721V12.9006H116.312V9.58626H130.92V6.82251H110.675V22.4308H131.594V19.6251Z" fill="#003B71"></path>
    <path d="M133.429 6.82251V22.4308H139.16V15.6114H151.277V12.9006H139.16V9.58626H153V6.82251H133.429Z" fill="#003B71"></path>
    <path d="M55.0429 0H50.9877C44.6778 0 39.5627 10.7443 39.5627 24.0005C39.5627 37.2567 44.6778 48.001 50.9877 48.001H55.0429C61.3527 48.001 66.4678 37.2567 66.4678 24.0005C66.4678 10.7443 61.3527 0 55.0429 0ZM53.0148 44.9135C49.5455 40.7979 47.199 32.9732 47.199 24.0005C47.199 15.0278 49.5415 7.21114 53.0148 3.09149C56.4881 7.21114 58.8306 15.0318 58.8306 24.0005C58.8306 32.9692 56.4881 40.7979 53.0148 44.9135Z" fill="#FF6200"></path>
    <path d="M11.425 48H15.4802C21.79 48 26.9051 37.2557 26.9051 23.9995C26.9051 10.7433 21.79 0 15.4802 0H11.425C5.11514 0 0 10.7443 0 24.0005C0 37.2567 5.11514 48.001 11.425 48.001V48ZM13.4531 3.08649C16.9224 7.20215 19.2688 15.0268 19.2688 23.9995C19.2688 32.9722 16.9264 40.7889 13.4531 44.9085C9.97976 40.7889 7.63727 32.9682 7.63727 23.9995C7.63727 15.0308 9.97876 7.20215 13.4531 3.08649Z" fill="#003B71"></path>
    <path d="M55.519 37.3386C55.519 41.4983 53.428 44.4019 53.0168 44.9115C51.4798 43.113 50.1164 40.3832 49.268 37.7853C47.4266 32.1489 43.3604 25.9049 37.345 19.8828C33.2459 15.7792 28.9033 12.5128 24.8641 10.3156C23.5975 6.47472 21.805 3.45218 19.709 1.6976C25.5128 1.48977 34.6033 6.32384 42.7466 14.4752C50.5985 22.3398 55.518 31.1657 55.518 37.3386H55.519Z" fill="#6CE1E9"></path>
    <path d="M10.9499 10.6612C10.9499 6.50161 13.0409 3.59796 13.4521 3.08838C14.9891 4.88692 16.3525 7.6167 17.2008 10.2146C19.0423 15.851 23.1084 22.0949 29.1238 28.117C33.2229 32.2207 37.5656 35.4871 41.6048 37.6843C42.8713 41.5252 44.6639 44.5477 46.7598 46.3023C40.956 46.5101 31.8656 41.676 23.7223 33.5246C15.8704 25.66 10.9509 16.8342 10.9509 10.6612H10.9499Z" fill="#6CE1E9"></path>
  </g>
  <defs>
    <clipPath id="clip0_177_8876">
      <rect width="153" height="48" fill="white"></rect>
    </clipPath>
  </defs>
</svg>
