<?xml version="1.0" encoding="UTF-8"?>
<svg xmlns="http://www.w3.org/2000/svg" width="220" height="70" viewBox="0 0 220 70" fill="none">
  <g clip-path="url(#clip0_177_9537)">
    <path d="M127.36 47.4493V49.9673H128.426V44.0891H127.36V46.5167H124.366V44.0891H123.292V49.9673H124.366V47.4493H127.36Z" fill="#F76C2E"></path>
    <path d="M133.943 44.2273C133.563 44.0787 133.15 44.0044 132.703 44.0044C132.257 44.0044 131.835 44.0802 131.455 44.2317C131.074 44.3833 130.744 44.5945 130.463 44.8656C130.182 45.1366 129.964 45.4557 129.81 45.8229C129.655 46.1901 129.579 46.5908 129.579 47.028C129.579 47.4651 129.656 47.8586 129.81 48.2243C129.965 48.5915 130.182 48.9121 130.463 49.186C130.744 49.46 131.076 49.6727 131.459 49.8242C131.842 49.9758 132.257 50.0516 132.703 50.0516C133.15 50.0516 133.563 49.9773 133.943 49.8286C134.323 49.68 134.654 49.4687 134.932 49.1948C135.21 48.9208 135.427 48.6002 135.582 48.233C135.736 47.8658 135.813 47.4651 135.813 47.028C135.813 46.5908 135.736 46.1887 135.582 45.8185C135.427 45.4484 135.21 45.1293 134.932 44.8568C134.654 44.5858 134.323 44.376 133.943 44.2273ZM134.576 47.86C134.474 48.1121 134.332 48.3307 134.15 48.5157C133.968 48.7008 133.755 48.8436 133.51 48.9441C133.264 49.0447 132.996 49.0957 132.703 49.0957C132.41 49.0957 132.139 49.0447 131.888 48.9441C131.637 48.8436 131.42 48.6993 131.239 48.5114C131.057 48.3234 130.914 48.1034 130.809 47.8527C130.704 47.6021 130.652 47.3267 130.652 47.0294C130.652 46.7322 130.704 46.451 130.809 46.2018C130.914 45.9526 131.057 45.734 131.239 45.5461C131.422 45.3581 131.638 45.2138 131.888 45.1133C132.139 45.0127 132.41 44.9617 132.703 44.9617C132.996 44.9617 133.264 45.0127 133.51 45.1133C133.755 45.2138 133.97 45.3566 134.154 45.5417C134.339 45.7267 134.481 45.9453 134.58 46.1974C134.679 46.4495 134.73 46.7264 134.73 47.0294C134.73 47.3325 134.678 47.6094 134.576 47.8615V47.86Z" fill="#F76C2E"></path>
    <path d="M141.627 45.6089C141.627 45.1164 141.445 44.7405 141.08 44.4796C140.717 44.2188 140.206 44.0891 139.55 44.0891H136.961V49.9673H139.707C140.434 49.9673 140.983 49.823 141.353 49.5345C141.722 49.246 141.907 48.8452 141.907 48.3294C141.907 47.8136 141.73 47.4537 141.377 47.1958C141.206 47.0704 141 46.9772 140.76 46.9131C140.886 46.8577 141.004 46.7921 141.109 46.7134C141.453 46.4526 141.626 46.0854 141.626 45.6089H141.627ZM138.029 44.9284H139.468C139.816 44.9284 140.08 44.9984 140.262 45.1383C140.444 45.2781 140.535 45.4851 140.535 45.759C140.535 46.0329 140.444 46.2399 140.262 46.3812C140.08 46.5211 139.816 46.591 139.468 46.591H138.029V44.9284ZM140.53 48.9137C140.341 49.0565 140.055 49.1279 139.675 49.1279H138.029V47.3896H139.675C140.055 47.3896 140.341 47.461 140.53 47.6038C140.721 47.7466 140.816 47.9608 140.816 48.2464C140.816 48.5494 140.721 48.7709 140.53 48.9137Z" fill="#F76C2E"></path>
    <path d="M144.959 44.0891L142.355 49.9673H143.455L144.031 48.6063H146.927L147.5 49.9673H148.632L146.018 44.0891H144.959ZM144.392 47.7509L145.48 45.1776L146.564 47.7509H144.391H144.392Z" fill="#F76C2E"></path>
    <path d="M156.059 49.0449H152.792V47.4318H155.588V46.5327H152.792V45.0129H155.942V44.0891H151.717V49.9673H156.059V49.0449Z" fill="#F76C2E"></path>
    <path d="M162.188 44.0891H161.046L159.377 46.559H158.267V44.0891H157.217V49.9673H158.267V47.4901H159.351L161.046 49.9673H162.261L160.203 46.9335L162.188 44.0891Z" fill="#F76C2E"></path>
    <path d="M168.945 47.028C168.945 46.5908 168.867 46.1887 168.714 45.8185C168.559 45.4484 168.342 45.1293 168.065 44.8568C167.787 44.5858 167.457 44.376 167.076 44.2273C166.696 44.0787 166.283 44.0044 165.836 44.0044C165.39 44.0044 164.968 44.0802 164.588 44.2317C164.207 44.3833 163.876 44.5945 163.595 44.8656C163.313 45.1366 163.095 45.4557 162.942 45.8229C162.787 46.1901 162.711 46.5908 162.711 47.028C162.711 47.4651 162.788 47.8586 162.942 48.2243C163.095 48.5915 163.313 48.9121 163.595 49.186C163.876 49.46 164.207 49.6727 164.592 49.8242C164.975 49.9758 165.39 50.0516 165.836 50.0516C166.283 50.0516 166.696 49.9773 167.076 49.8286C167.457 49.68 167.787 49.4687 168.065 49.1948C168.344 48.9208 168.56 48.6002 168.714 48.233C168.869 47.8658 168.945 47.4651 168.945 47.028ZM167.709 47.86C167.607 48.1121 167.465 48.3307 167.283 48.5157C167.101 48.7008 166.887 48.8436 166.641 48.9441C166.396 49.0447 166.128 49.0957 165.835 49.0957C165.542 49.0957 165.271 49.0447 165.02 48.9441C164.769 48.8436 164.552 48.6993 164.371 48.5114C164.189 48.3234 164.047 48.1034 163.942 47.8527C163.837 47.6006 163.784 47.3267 163.784 47.0294C163.784 46.7322 163.836 46.451 163.942 46.2018C164.047 45.9526 164.19 45.734 164.371 45.5461C164.553 45.3581 164.77 45.2138 165.02 45.1133C165.271 45.0127 165.542 44.9617 165.835 44.9617C166.128 44.9617 166.396 45.0127 166.641 45.1133C166.887 45.2138 167.102 45.3566 167.287 45.5417C167.471 45.7267 167.614 45.9453 167.714 46.1974C167.813 46.4495 167.863 46.7264 167.863 47.0294C167.863 47.3325 167.811 47.6094 167.711 47.8615L167.709 47.86Z" fill="#F76C2E"></path>
    <path d="M174.163 46.5167H171.169V44.0891H170.094V49.9673H171.169V47.4493H174.163V49.9673H175.231V44.0891H174.163V46.5167Z" fill="#F76C2E"></path>
    <path d="M182.616 47.028C182.616 46.5908 182.538 46.1887 182.385 45.8185C182.23 45.4484 182.013 45.1293 181.736 44.8568C181.458 44.5858 181.128 44.376 180.747 44.2273C180.367 44.0787 179.952 44.0044 179.507 44.0044C179.063 44.0044 178.639 44.0802 178.259 44.2317C177.879 44.3833 177.549 44.5945 177.267 44.8656C176.986 45.1366 176.768 45.4557 176.614 45.8229C176.459 46.1901 176.383 46.5908 176.383 47.028C176.383 47.4651 176.461 47.8586 176.614 48.2243C176.769 48.5915 176.986 48.9121 177.267 49.186C177.549 49.46 177.88 49.6727 178.263 49.8242C178.646 49.9758 179.061 50.0516 179.507 50.0516C179.954 50.0516 180.367 49.9773 180.747 49.8286C181.128 49.68 181.456 49.4687 181.736 49.1948C182.015 48.9208 182.231 48.6002 182.385 48.233C182.538 47.8658 182.616 47.4651 182.616 47.028ZM181.38 47.86C181.278 48.1121 181.136 48.3307 180.954 48.5157C180.772 48.7008 180.559 48.8436 180.314 48.9441C180.069 49.0447 179.8 49.0957 179.507 49.0957C179.215 49.0957 178.943 49.0447 178.692 48.9441C178.441 48.8436 178.224 48.6993 178.044 48.5114C177.861 48.3234 177.718 48.1034 177.613 47.8527C177.508 47.6006 177.455 47.3267 177.455 47.0294C177.455 46.7322 177.507 46.451 177.613 46.2018C177.718 45.9526 177.861 45.734 178.044 45.5461C178.226 45.3581 178.443 45.2138 178.692 45.1133C178.943 45.0127 179.215 44.9617 179.507 44.9617C179.8 44.9617 180.069 45.0127 180.314 45.1133C180.559 45.2138 180.775 45.3566 180.958 45.5417C181.144 45.7267 181.286 45.9453 181.385 46.1974C181.484 46.4495 181.532 46.7264 181.532 47.0294C181.532 47.3325 181.482 47.6094 181.38 47.8615V47.86Z" fill="#F76C2E"></path>
    <path d="M189.216 44.0891L186.949 47.9855L184.651 44.0891H183.766V49.9673H184.8V46.1393L186.693 49.3042H187.181L189.076 46.0767V49.9673H190.109L190.093 44.0891H189.216Z" fill="#F76C2E"></path>
    <path d="M192.757 44.0891H191.689V49.9673H192.757V44.0891Z" fill="#F76C2E"></path>
    <path d="M194.344 44.0891V49.9673H195.395V47.4901H196.478L198.173 49.9673H199.39L197.329 46.9335L199.315 44.0891H198.173L196.504 46.559H195.395V44.0891H194.344Z" fill="#F76C2E"></path>
    <path d="M204.109 48.6077L204.683 49.9687H205.815L203.202 44.0906H202.143L199.536 49.9687H200.637L201.213 48.6077H204.109ZM202.663 45.1791L203.747 47.7509H201.574L202.662 45.1791H202.663Z" fill="#F76C2E"></path>
    <path d="M124.358 54.1667H123.292V60.0449H124.358V54.1667Z" fill="#F76C2E"></path>
    <path d="M130.363 57.2734C130.192 57.1481 129.985 57.0548 129.745 56.9907C129.872 56.9353 129.989 56.8698 130.094 56.7911C130.439 56.5302 130.611 56.163 130.611 55.6866C130.611 55.2101 130.429 54.8166 130.065 54.5573C129.701 54.2964 129.191 54.1667 128.536 54.1667H125.947V60.0449H128.692C129.42 60.0449 129.968 59.9006 130.338 59.6121C130.707 59.3236 130.892 58.9229 130.892 58.407C130.892 57.8912 130.716 57.5313 130.363 57.2734ZM127.013 55.0061H128.452C128.8 55.0061 129.065 55.076 129.246 55.2159C129.428 55.3558 129.519 55.5627 129.519 55.8381C129.519 56.1135 129.428 56.319 129.246 56.4603C129.064 56.6002 128.8 56.6701 128.452 56.6701H127.013V55.0075V55.0061ZM129.514 58.9899C129.323 59.1327 129.038 59.2041 128.658 59.2041H127.011V57.4657H128.658C129.038 57.4657 129.323 57.5371 129.514 57.6799C129.704 57.8227 129.8 58.0369 129.8 58.3225C129.8 58.6242 129.705 58.8471 129.514 58.9899Z" fill="#F76C2E"></path>
    <path d="M133.943 54.1667L131.338 60.0449H132.439L133.015 58.6839H135.911L136.485 60.0449H137.617L135.004 54.1667H133.945H133.943ZM133.376 57.8286L134.464 55.2552L135.549 57.8286H133.376Z" fill="#F76C2E"></path>
    <path d="M142.528 56.5944H139.535V54.1667H138.46V60.0449H139.535V57.5255H142.528V60.0449H143.595V54.1667H142.528V56.5944Z" fill="#F76C2E"></path>
    <path d="M150.1 54.9345C149.822 54.6634 149.491 54.4536 149.111 54.305C148.731 54.1563 148.318 54.082 147.871 54.082C147.425 54.082 147.003 54.1578 146.623 54.3093C146.242 54.4609 145.911 54.6722 145.63 54.9432C145.348 55.2142 145.13 55.5334 144.977 55.9006C144.822 56.2678 144.745 56.6685 144.745 57.1056C144.745 57.5428 144.823 57.9362 144.977 58.3019C145.132 58.6691 145.348 58.9897 145.63 59.2637C145.911 59.5376 146.242 59.7503 146.626 59.9019C147.009 60.0534 147.423 60.1292 147.871 60.1292C148.319 60.1292 148.731 60.0549 149.111 59.9063C149.491 59.7576 149.822 59.5463 150.1 59.2724C150.378 58.9985 150.595 58.6779 150.75 58.3107C150.905 57.9435 150.981 57.5428 150.981 57.1056C150.981 56.6685 150.904 56.2663 150.75 55.8962C150.595 55.5261 150.378 55.207 150.1 54.9345ZM149.744 57.9362C149.642 58.1883 149.5 58.4069 149.318 58.5919C149.136 58.777 148.922 58.9198 148.676 59.0203C148.431 59.1209 148.163 59.1719 147.87 59.1719C147.577 59.1719 147.306 59.1209 147.055 59.0203C146.803 58.9198 146.587 58.7755 146.406 58.5875C146.224 58.3996 146.08 58.1795 145.975 57.9289C145.871 57.6768 145.819 57.4029 145.819 57.1056C145.819 56.8084 145.871 56.5271 145.975 56.278C146.08 56.0288 146.224 55.8102 146.406 55.6222C146.588 55.4343 146.805 55.29 147.055 55.1895C147.306 55.0889 147.577 55.0379 147.87 55.0379C148.163 55.0379 148.431 55.0889 148.676 55.1895C148.922 55.29 149.137 55.4328 149.321 55.6179C149.506 55.8029 149.648 56.0215 149.747 56.2736C149.846 56.5257 149.896 56.8025 149.896 57.1056C149.896 57.4087 149.845 57.6856 149.743 57.9376L149.744 57.9362Z" fill="#F76C2E"></path>
    <path d="M154.05 57.2661H151.766V58.1564H154.05V57.2661Z" fill="#F76C2E"></path>
    <path d="M160.34 54.821C159.918 54.652 159.416 54.5558 158.839 54.5281V53.9307H157.847V54.5296C157.279 54.5587 156.783 54.6549 156.363 54.821C155.853 55.0221 155.463 55.315 155.192 55.6982C154.922 56.0814 154.786 56.5477 154.786 57.0971C154.786 57.6464 154.921 58.1098 155.192 58.4915C155.462 58.8719 155.852 59.1618 156.363 59.3615C156.783 59.5247 157.279 59.6208 157.847 59.6485V60.2795H158.839V59.6514C159.424 59.6267 159.931 59.5305 160.357 59.36C160.856 59.1618 161.237 58.8689 161.498 58.4828C161.759 58.0967 161.891 57.6347 161.891 57.0971C161.891 56.5594 161.758 56.0829 161.494 55.6982C161.23 55.315 160.845 55.0221 160.34 54.821ZM156.977 58.63C156.608 58.5032 156.326 58.3123 156.129 58.0544C155.934 57.7965 155.836 57.4774 155.836 57.0971C155.836 56.7167 155.93 56.3903 156.113 56.1353C156.298 55.8803 156.577 55.6909 156.948 55.5641C157.205 55.4767 157.505 55.4213 157.845 55.3936V58.7961C157.52 58.7684 157.228 58.7145 156.977 58.6285V58.63ZM160.579 58.0384C160.394 58.2963 160.122 58.4901 159.76 58.6227C159.499 58.7174 159.19 58.7771 158.837 58.8034V55.3922C159.187 55.417 159.494 55.4767 159.756 55.57C160.114 55.6982 160.387 55.8891 160.575 56.1412C160.762 56.3932 160.856 56.7065 160.856 57.0825C160.856 57.4584 160.765 57.7819 160.579 58.0398V58.0384Z" fill="#F76C2E"></path>
    <path d="M166.683 54.4145C166.317 54.2498 165.877 54.1667 165.364 54.1667H162.982V60.0449H164.057V58.3488H165.364C165.877 58.3488 166.317 58.2628 166.683 58.0923C167.05 57.9218 167.332 57.6814 167.531 57.3696C167.731 57.0592 167.83 56.6876 167.83 56.2563C167.83 55.825 167.731 55.4447 167.531 55.1314C167.333 54.8181 167.05 54.5791 166.683 54.413V54.4145ZM166.386 57.1189C166.146 57.3229 165.789 57.4249 165.315 57.4249H164.058V55.0906H165.315C165.789 55.0906 166.146 55.1926 166.386 55.3966C166.626 55.6006 166.746 55.8876 166.746 56.2578C166.746 56.6279 166.626 56.9149 166.386 57.1189Z" fill="#F76C2E"></path>
    <path d="M170.756 54.1667L168.15 60.0449H169.251L169.826 58.6839H172.722L173.296 60.0449H174.429L171.815 54.1667H170.756ZM170.188 57.8286L171.276 55.2552L172.36 57.8286H170.188Z" fill="#F76C2E"></path>
    <path d="M179.341 56.5944H176.347V54.1667H175.272V60.0449H176.347V57.5255H179.341V60.0449H180.407V54.1667H179.341V56.5944Z" fill="#F76C2E"></path>
    <path d="M186.967 54.1667H185.825L184.156 56.6352H183.047V54.1667H181.996V60.0449H183.047V57.5677H184.13L185.825 60.0449H187.041L184.983 57.0096L186.967 54.1667Z" fill="#F76C2E"></path>
    <path d="M188.992 54.1667H187.926V60.0449H188.992V54.1667Z" fill="#F76C2E"></path>
    <path d="M194.997 57.2734C194.826 57.1481 194.62 57.0548 194.38 56.9907C194.506 56.9353 194.624 56.8698 194.729 56.7911C195.073 56.5302 195.245 56.163 195.245 55.6866C195.245 55.2101 195.063 54.8166 194.7 54.5573C194.337 54.2964 193.826 54.1667 193.17 54.1667H190.581V60.0449H193.326C194.054 60.0449 194.604 59.9006 194.973 59.6121C195.343 59.3236 195.527 58.9229 195.527 58.407C195.527 57.8912 195.35 57.5313 194.997 57.2734ZM191.647 55.0061H193.087C193.434 55.0061 193.7 55.076 193.88 55.2159C194.063 55.3558 194.153 55.5627 194.153 55.8381C194.153 56.1135 194.063 56.319 193.88 56.4603C193.698 56.6002 193.434 56.6701 193.087 56.6701H191.647V55.0075V55.0061ZM194.15 58.9899C193.959 59.1327 193.674 59.2041 193.293 59.2041H191.647V57.4657H193.293C193.674 57.4657 193.959 57.5371 194.15 57.6799C194.34 57.8227 194.436 58.0369 194.436 58.3225C194.436 58.6242 194.341 58.8471 194.15 58.9899Z" fill="#F76C2E"></path>
    <path d="M197.946 55.6193C198.13 55.4343 198.348 55.2915 198.599 55.1909C198.85 55.0904 199.127 55.0394 199.43 55.0394C199.733 55.0394 200.006 55.0962 200.265 55.2113C200.525 55.3264 200.762 55.4984 200.977 55.7286L201.672 55.0656C201.402 54.7407 201.07 54.4959 200.679 54.3312C200.287 54.1666 199.855 54.0835 199.38 54.0835C198.934 54.0835 198.523 54.1578 198.147 54.3064C197.773 54.4551 197.444 54.6664 197.163 54.9403C196.881 55.2142 196.663 55.5334 196.51 55.8976C196.355 56.2619 196.279 56.6641 196.279 57.1071C196.279 57.5501 196.356 57.9522 196.51 58.3165C196.665 58.6808 196.881 58.9999 197.158 59.2739C197.437 59.5478 197.764 59.7591 198.139 59.9077C198.513 60.0564 198.924 60.1307 199.371 60.1307C199.851 60.1307 200.285 60.0461 200.677 59.8786C201.069 59.711 201.399 59.4647 201.67 59.1398L200.976 58.4768C200.761 58.7114 200.524 58.8863 200.264 59.0014C200.006 59.1165 199.726 59.1733 199.429 59.1733C199.132 59.1733 198.849 59.1223 198.598 59.0218C198.347 58.9212 198.128 58.7784 197.945 58.5934C197.76 58.4083 197.615 58.1897 197.51 57.9377C197.405 57.6856 197.353 57.4087 197.353 57.1056C197.353 56.8025 197.405 56.5257 197.51 56.2736C197.615 56.0215 197.76 55.8029 197.945 55.6179L197.946 55.6193Z" fill="#F76C2E"></path>
    <path d="M206.907 56.6279C206.533 56.3146 205.997 56.1572 205.303 56.1572H203.698V54.1667H202.632V60.0449H205.129C205.862 60.0449 206.435 59.8759 206.85 59.5363C207.263 59.1983 207.47 58.6985 207.47 58.0369C207.47 57.4104 207.282 56.9397 206.907 56.6264V56.6279ZM206.043 58.9127C205.814 59.1094 205.494 59.207 205.079 59.207H203.698V56.998H205.079C205.498 56.998 205.821 57.0825 206.048 57.2501C206.273 57.4176 206.386 57.6872 206.386 58.0559C206.386 58.4245 206.271 58.716 206.043 58.9127Z" fill="#F76C2E"></path>
    <path d="M213.49 54.1667H212.349L210.679 56.6352H209.571V54.1667H208.52V60.0449H209.571V57.5677H210.654L212.349 60.0449H213.565L211.505 57.0096L213.49 54.1667Z" fill="#F76C2E"></path>
    <path d="M216.319 54.1667L213.714 60.0449H214.815L215.39 58.6839H218.286L218.861 60.0449H219.994L217.381 54.1667H216.322H216.319ZM215.752 57.8286L216.84 55.2552L217.925 57.8286H215.752Z" fill="#F76C2E"></path>
    <path d="M131.021 16.5431L147.231 32.7116H155.526V9.94946H147.798V25.8397L131.99 9.94946H123.292V32.7116H131.021V16.5431Z" fill="#F76C2E"></path>
    <path d="M189.221 28.6199H167.246V22.7666H186.527V18.8133H167.246V13.9799H188.25V9.94946H159.14V32.7116H189.221V28.6199Z" fill="#F76C2E"></path>
    <path d="M191.858 9.94946V32.7116H200.099V22.7666H217.523V18.8133H200.099V13.9799H220V9.94946H191.858Z" fill="#F76C2E"></path>
    <path d="M79.1466 0H73.3156C64.2427 0 56.8876 15.6687 56.8876 35.0007C56.8876 54.3327 64.2427 70.0015 73.3156 70.0015H79.1466C88.2196 70.0015 95.5747 54.3327 95.5747 35.0007C95.5747 15.6687 88.2196 0 79.1466 0ZM76.2304 65.4989C71.2419 59.4969 67.8678 48.0859 67.8678 35.0007C67.8678 21.9155 71.2361 10.5162 76.2304 4.50842C81.2247 10.5162 84.593 21.9214 84.593 35.0007C84.593 48.0801 81.2247 59.4969 76.2304 65.4989Z" fill="#FF6200"></path>
    <path d="M16.4281 70H22.259C31.332 70 38.6871 54.3313 38.6871 34.9993C38.6871 15.6673 31.332 0 22.259 0H16.4281C7.3551 0 0 15.6687 0 35.0007C0 54.3327 7.3551 70.0015 16.4281 70.0015V70ZM19.3443 4.50113C24.3328 10.5031 27.7068 21.9141 27.7068 34.9993C27.7068 48.0845 24.3386 59.4838 19.3443 65.4916C14.35 59.4838 10.9817 48.0786 10.9817 34.9993C10.9817 21.9199 14.3485 10.5031 19.3443 4.50113Z" fill="white"></path>
    <path d="M79.8312 54.4522C79.8312 60.5183 76.8245 64.7528 76.2333 65.496C74.0231 62.8731 72.0627 58.8922 70.8429 55.1036C68.195 46.8838 62.3483 37.7781 53.6987 28.9958C47.8045 23.0113 41.5602 18.2479 35.7522 15.0436C33.931 9.44233 31.3535 5.03446 28.3397 2.4757C36.6851 2.17261 49.7563 9.2223 61.4657 21.1097C72.7559 32.5789 79.8297 45.45 79.8297 54.4522H79.8312Z" fill="#6CE1E9"></path>
    <path d="M15.7449 15.5479C15.7449 9.48177 18.7516 5.2473 19.3428 4.50415C21.553 7.12702 23.5134 11.108 24.7332 14.8965C27.3811 23.1163 33.2278 32.222 41.8774 41.0043C47.7715 46.9888 54.0159 51.7522 59.8239 54.9565C61.6451 60.5578 64.2226 64.9657 67.2364 67.5244C58.891 67.8275 45.8198 60.7778 34.1104 48.8904C22.8202 37.4212 15.7464 24.5502 15.7464 15.5479H15.7449Z" fill="#6CE1E9"></path>
  </g>
  <defs>
    <clipPath id="clip0_177_9537">
      <rect width="220" height="70" fill="white"></rect>
    </clipPath>
  </defs>
</svg>
