<?xml version="1.0" encoding="UTF-8"?>
<svg xmlns="http://www.w3.org/2000/svg" width="59" height="32" viewBox="0 0 59 32" fill="none">
  <g clip-path="url(#clip0_394_5490)">
    <path d="M12.8527 15.368V15.3306C12.8527 14.3635 12.1299 13.8711 10.918 13.8711H9.66821V16.8287H10.8984C12.0706 16.8287 12.8527 16.3167 12.8527 15.368Z" fill="#7EA831"></path>
    <path d="M19.8842 10.3236H22.9032L18.4171 0.8125L1.48901 8.3325L5.09723 15.9829V10.3236H11.2501C14.8834 10.3236 17.3645 11.8975 17.3645 15.0448V15.0827C17.3645 18.2869 14.8449 19.9929 11.1524 19.9929H9.66764V24.5713L19.883 20.0338V10.3236H19.8842Z" fill="#7EA831"></path>
    <path d="M27.6388 15.368V15.3306C27.6388 14.3635 26.9165 13.8711 25.7052 13.8711H24.4549V16.8287H25.6857C26.8579 16.8287 27.6388 16.3167 27.6388 15.368Z" fill="#B61D8D"></path>
    <path d="M32.0889 15.8824C31.6969 18.5687 29.3098 19.9944 25.9391 19.9944H24.4549V24.5989H19.8845V14.5627C17.9375 16.0976 16.6926 18.4389 16.6926 21.0629C16.6926 25.6863 20.5536 29.4344 25.3163 29.4344C30.0796 29.4344 33.9406 25.6863 33.9406 21.0629C33.9406 19.1067 33.2477 17.3076 32.0889 15.8824Z" fill="#B61D8D"></path>
    <path d="M28.3635 8.5937L35.5574 17.8761L32.6409 10.3258H37.7601L40.4165 17.7771L43.0729 10.3258H48.1128L42.5656 24.6944H40.8409L43.1492 27.674L52.9824 5.58984L28.3635 8.5937Z" fill="#0080B8"></path>
    <path d="M24.9529 3.31609L25.4474 3.25446L25.6818 5.02572L25.699 5.02335C25.7814 4.86987 25.8644 4.72587 25.9438 4.59372L26.9182 3.07076L27.5189 2.99609L26.3608 4.72469L28.1179 6.65535L27.5391 6.72706L26.0537 5.07846L25.7484 5.52706L25.9334 6.92735L25.4395 6.98898L24.9529 3.31609Z" fill="white"></path>
    <path d="M28.4817 6.61047L27.9957 2.93759L28.5403 2.86944L29.9928 4.57196C30.3255 4.97314 30.6021 5.33225 30.831 5.68603L30.8414 5.67951C30.7315 5.19418 30.6607 4.74855 30.5868 4.18203L30.3817 2.63951L30.8426 2.58203L31.3292 6.25492L30.8347 6.31714L29.3865 4.60277C29.0684 4.22707 28.7607 3.83892 28.5159 3.46499L28.5006 3.47211C28.5898 3.93196 28.66 4.37225 28.7406 4.98262L28.9488 6.55181L28.4817 6.61047Z" fill="white"></path>
    <path d="M35.1712 3.9026C35.3324 5.12394 34.6199 5.90497 33.6657 6.02349C32.6437 6.15149 31.861 5.45638 31.7163 4.36127C31.5661 3.23297 32.1858 2.35238 33.2304 2.2226C34.308 2.08808 35.0302 2.84008 35.1712 3.9026ZM32.2352 4.27949C32.3463 5.11327 32.8732 5.72897 33.6425 5.63356C34.4398 5.53401 34.7622 4.77905 34.6566 3.97845C34.5558 3.22586 34.0796 2.50942 33.2481 2.61371C32.4617 2.71149 32.1266 3.45105 32.2352 4.27949Z" fill="white"></path>
    <path d="M36.6597 5.5874L35.2128 2.03422L35.736 1.96962L36.4302 3.7717C36.6036 4.21555 36.7653 4.66059 36.8795 5.00666L36.8905 5.00488C36.8991 4.63273 36.9632 4.17644 37.0303 3.69111L37.2904 1.77525L37.8014 1.71125L38.5084 3.51807C38.6726 3.94059 38.832 4.3637 38.9394 4.74414L38.951 4.74296C38.9761 4.32933 39.028 3.90207 39.0805 3.4357L39.3351 1.51985L39.84 1.45703L39.2539 5.26444L38.7373 5.32844L38.0114 3.47422C37.8332 3.02029 37.7062 2.67007 37.6073 2.30622L37.5957 2.3074C37.5761 2.68073 37.5334 3.0517 37.462 3.54236L37.1817 5.52222L36.6597 5.5874Z" fill="white"></path>
    <path d="M40.3049 1.40147L40.7989 1.33984L41.2323 4.60977L42.849 4.40829L42.9021 4.81184L40.7909 5.07555L40.3049 1.40147Z" fill="white"></path>
    <path d="M45.1723 2.77457L43.707 2.95769L43.8835 4.28746L45.5233 4.08302L45.5746 4.47532L43.4408 4.74139L42.9548 1.0685L45.0038 0.8125L45.0563 1.20539L43.5007 1.39976L43.6551 2.56598L45.1198 2.38287L45.1723 2.77457Z" fill="white"></path>
    <path d="M45.7163 0.773671C46.013 0.692486 46.3635 0.614856 46.7512 0.566856C47.452 0.479153 47.9734 0.575152 48.3434 0.833523C48.7207 1.0913 48.9735 1.49782 49.0516 2.08626C49.131 2.68597 49.0046 3.195 48.6963 3.58197C48.3819 3.97012 47.8281 4.2273 47.0924 4.31915C46.745 4.36241 46.4502 4.38197 46.1937 4.38671L45.7163 0.773671ZM46.6413 3.96004C46.767 3.96656 46.9484 3.94937 47.1382 3.92508C48.1828 3.79471 48.6743 3.15767 48.5443 2.16567C48.435 1.29812 47.8562 0.811004 46.8232 0.939597C46.571 0.971004 46.383 1.02197 46.2572 1.06049L46.6413 3.96004Z" fill="white"></path>
    <path d="M52.7984 3.40739C52.5896 3.51109 52.175 3.69065 51.6634 3.75405C51.0907 3.82576 50.6011 3.74279 50.1847 3.44531C49.8178 3.18102 49.551 2.71524 49.4753 2.14339C49.3361 1.05302 50.0046 0.149905 51.2733 -0.00831682C51.7116 -0.0634279 52.0731 -0.00831656 52.2391 0.0426464L52.1726 0.445017C51.9583 0.382795 51.697 0.343683 51.3154 0.39109C50.3947 0.506053 49.8672 1.13657 49.9893 2.05805C50.1127 2.98961 50.7586 3.46902 51.6451 3.3582C51.9644 3.31909 52.1787 3.24739 52.2831 3.17924L52.139 2.08354L51.3697 2.17954L51.3197 1.79731L52.5658 1.64205L52.7984 3.40739Z" fill="white"></path>
    <path d="M55.2924 1.51286L53.8277 1.69597L54.0036 3.02634L55.6434 2.82189L55.6947 3.2136L53.5615 3.47967L53.075 -0.193219L55.1239 -0.449219L55.1758 -0.0569226L53.6208 0.137448L53.7752 1.30308L55.2399 1.12056L55.2924 1.51286Z" fill="white"></path>
    <path d="M48.1632 30.5393L44.6606 29.0733L44.8774 28.5838L47.1266 28.2383C47.6522 28.1642 48.1114 28.1174 48.5412 28.1067V28.0943C48.0552 27.9396 47.6241 27.7707 47.0832 27.5444L45.6125 26.9287L45.7968 26.5156L49.3 27.9811L49.1034 28.4256L46.8451 28.761C46.35 28.835 45.8487 28.8949 45.3933 28.9079L45.3915 28.9251C45.8451 29.0845 46.27 29.2504 46.8524 29.494L48.3501 30.121L48.1632 30.5393Z" fill="white"></path>
    <path d="M48.7768 24.7739L48.1932 26.0907L49.4606 26.6216L50.1151 25.1484L50.4887 25.3049L49.6371 27.2219L46.1339 25.7564L46.9526 23.9141L47.3262 24.0711L46.7053 25.469L47.8165 25.9348L48.402 24.6181L48.7768 24.7739Z" fill="white"></path>
    <path d="M47.9432 22.7064L47.4847 23.741L47.0989 23.5804L48.2174 21.0625L48.602 21.2231L48.141 22.2625L51.2596 23.5686L51.0624 24.0124L47.9432 22.7064Z" fill="white"></path>
    <path d="M52.2227 21.3994L48.3367 20.7955L48.5449 20.3262L50.4973 20.664C50.9778 20.7458 51.4546 20.8382 51.8197 20.9188L51.8246 20.9087C51.4986 20.712 51.1268 20.4252 50.7312 20.1218L49.1658 18.9277L49.3697 18.469L51.3319 18.7991C51.7898 18.8767 52.2465 18.9603 52.6378 19.0646L52.6421 19.0539C52.2886 18.8222 51.9357 18.5609 51.5493 18.28L49.982 17.0912L50.1823 16.6367L53.2581 19.0669L53.053 19.5309L51.0401 19.1914C50.5456 19.1102 50.1713 19.0373 49.797 18.9348L49.7928 18.9449C50.1139 19.1511 50.4216 19.3751 50.8203 19.6862L52.4315 20.9283L52.2227 21.3994Z" fill="white"></path>
    <path d="M53.4089 14.0421C54.5726 14.5292 54.9022 15.523 54.5207 16.3805C54.1134 17.2984 53.0988 17.5983 52.0541 17.1603C50.9778 16.7106 50.5132 15.744 50.9296 14.8054C51.36 13.8371 52.3948 13.6178 53.4089 14.0421ZM52.2465 16.6857C53.042 17.0181 53.8564 16.8925 54.1635 16.2009C54.4816 15.4845 53.9767 14.8303 53.2129 14.5103C52.4949 14.2104 51.617 14.2442 51.2849 14.9908C50.9717 15.6972 51.4571 16.3538 52.2465 16.6857Z" fill="white"></path>
    <path d="M51.9589 12.7666C52.0132 12.5201 52.1274 12.1918 52.2629 11.8884C52.4717 11.419 52.6939 11.153 52.9858 11.0244C53.2153 10.923 53.4998 10.9219 53.7709 11.035C54.2331 11.2282 54.4144 11.6401 54.379 12.0501L54.39 12.0543C54.6055 11.8333 54.9297 11.7835 55.3241 11.8528C55.8681 11.9482 56.2356 12.0069 56.4023 11.9921L56.2014 12.4472C56.0781 12.4608 55.7423 12.4099 55.2636 12.3239C54.7404 12.225 54.4724 12.3281 54.2795 12.7198L54.0963 13.134L55.6129 13.7693L55.4157 14.2137L51.9589 12.7666ZM53.7514 12.9906L53.9516 12.542C54.1592 12.0727 54.0261 11.6644 53.6268 11.4967C53.1695 11.3053 52.8356 11.5429 52.6231 12.0045C52.5273 12.2214 52.4833 12.3761 52.4729 12.4561L53.7514 12.9906Z" fill="white"></path>
    <path d="M53.1165 10.0329L53.3137 9.58908L55.0036 10.2955L55.0109 10.28C54.9163 10.1325 54.832 9.98967 54.7557 9.85634L53.9016 8.26701L54.1415 7.72656L55.0836 9.57486L57.6911 9.09249L57.4597 9.6116L55.2411 10.0116L55.4829 10.4957L56.8187 11.0546L56.6215 11.4984L53.1165 10.0329Z" fill="white"></path>
    <path d="M57.2595 8.58895C57.4714 8.44436 57.704 8.20021 57.8377 7.89799C58.0367 7.44881 57.9091 7.08377 57.5562 6.93562C57.2284 6.79873 56.9597 6.90184 56.572 7.28999C56.13 7.75755 55.6709 7.97266 55.1837 7.76762C54.6415 7.54184 54.4321 6.93266 54.7258 6.27192C54.8784 5.92881 55.0762 5.70599 55.2258 5.58984L55.5409 5.86481C55.4291 5.94955 55.2246 6.13325 55.0879 6.4414C54.8815 6.90599 55.0897 7.2017 55.3296 7.30184C55.6563 7.43873 55.909 7.29947 56.3052 6.90836C56.7955 6.43133 57.2058 6.25592 57.7192 6.47103C58.2601 6.6974 58.5605 7.28407 58.2046 8.08644C58.0569 8.41947 57.7937 8.73414 57.5886 8.86333L57.2595 8.58895Z" fill="white"></path>
  </g>
  <defs>
    <clipPath id="clip0_394_5490">
      <rect width="58" height="32" fill="white" transform="translate(0.923096)"></rect>
    </clipPath>
  </defs>
</svg>
