<?xml version="1.0" encoding="UTF-8"?>
<svg xmlns="http://www.w3.org/2000/svg" width="50" height="32" viewBox="0 0 50 32" fill="none">
  <g clip-path="url(#clip0_394_5188)">
    <path d="M50 -2H0V30H50V-2Z" fill="#003399"></path>
    <path d="M25.0002 1.55469L24.428 3.24545L25.3086 3.52014L25.0002 1.55469Z" fill="#FFCC00"></path>
    <path d="M25.0002 1.55469L25.5725 3.24545L24.6919 3.52014L25.0002 1.55469Z" fill="#FFCC00"></path>
    <path d="M26.7523 2.79688L24.9095 2.7803L24.9187 3.65262L26.7523 2.79688Z" fill="#FFCC00"></path>
    <path d="M26.7614 2.78906L25.2716 3.82553L24.719 3.09792L26.7614 2.78906Z" fill="#FFCC00"></path>
    <path d="M26.0887 4.77344L25.5095 3.07784L24.6359 3.3477L26.0887 4.77344Z" fill="#FFCC00"></path>
    <path d="M26.0938 4.76953L24.5906 3.71926L25.1298 3.00545L26.0938 4.76953Z" fill="#FFCC00"></path>
    <path d="M23.2482 2.79688L25.0909 2.7803L25.0818 3.65262L23.2482 2.79688Z" fill="#FFCC00"></path>
    <path d="M23.2391 2.78906L24.7289 3.82553L25.2815 3.09792L23.2391 2.78906Z" fill="#FFCC00"></path>
    <path d="M23.9117 4.77344L24.491 3.07784L25.3646 3.3477L23.9117 4.77344Z" fill="#FFCC00"></path>
    <path d="M23.9067 4.76953L25.4099 3.71926L24.8707 3.00545L23.9067 4.76953Z" fill="#FFCC00"></path>
    <path d="M25.0002 22.8867L24.428 24.5775L25.3086 24.8522L25.0002 22.8867Z" fill="#FFCC00"></path>
    <path d="M25.0002 22.8867L25.5725 24.5775L24.6919 24.8522L25.0002 22.8867Z" fill="#FFCC00"></path>
    <path d="M26.7523 24.1289L24.9095 24.1123L24.9187 24.9847L26.7523 24.1289Z" fill="#FFCC00"></path>
    <path d="M26.7614 24.1211L25.2716 25.1576L24.719 24.4299L26.7614 24.1211Z" fill="#FFCC00"></path>
    <path d="M26.0887 26.1055L25.5095 24.4099L24.6359 24.6797L26.0887 26.1055Z" fill="#FFCC00"></path>
    <path d="M26.0938 26.1016L24.5906 25.0513L25.1298 24.3375L26.0938 26.1016Z" fill="#FFCC00"></path>
    <path d="M23.2482 24.1289L25.0909 24.1123L25.0818 24.9847L23.2482 24.1289Z" fill="#FFCC00"></path>
    <path d="M23.2391 24.1211L24.7289 25.1576L25.2815 24.4299L23.2391 24.1211Z" fill="#FFCC00"></path>
    <path d="M23.9117 26.1055L24.491 24.4099L25.3646 24.6797L23.9117 26.1055Z" fill="#FFCC00"></path>
    <path d="M23.9067 26.1016L25.4099 25.0513L24.8707 24.3375L23.9067 26.1016Z" fill="#FFCC00"></path>
    <path d="M13.8892 12.2188L13.3169 13.9095L14.1975 14.1842L13.8892 12.2188Z" fill="#FFCC00"></path>
    <path d="M13.8892 12.2188L14.4614 13.9095L13.5808 14.1842L13.8892 12.2188Z" fill="#FFCC00"></path>
    <path d="M15.6412 13.4609L13.7985 13.4444L13.8076 14.3167L15.6412 13.4609Z" fill="#FFCC00"></path>
    <path d="M15.6503 13.4531L14.1605 14.4896L13.6079 13.762L15.6503 13.4531Z" fill="#FFCC00"></path>
    <path d="M14.9777 15.4375L14.3984 13.7419L13.5248 14.0118L14.9777 15.4375Z" fill="#FFCC00"></path>
    <path d="M14.9827 15.4336L13.4795 14.3833L14.0187 13.6695L14.9827 15.4336Z" fill="#FFCC00"></path>
    <path d="M12.1371 13.4609L13.9799 13.4444L13.9707 14.3167L12.1371 13.4609Z" fill="#FFCC00"></path>
    <path d="M12.128 13.4531L13.6178 14.4896L14.1704 13.762L12.128 13.4531Z" fill="#FFCC00"></path>
    <path d="M12.8007 15.4375L13.3799 13.7419L14.2535 14.0118L12.8007 15.4375Z" fill="#FFCC00"></path>
    <path d="M12.7956 15.4336L14.2988 14.3833L13.7596 13.6695L12.7956 15.4336Z" fill="#FFCC00"></path>
    <path d="M18.3508 6.17578L19.8543 5.12525L19.3154 4.4117L18.3508 6.17578Z" fill="#FFCC00"></path>
    <path d="M18.3561 6.17969L18.9358 4.48386L19.809 4.75348L18.3561 6.17969Z" fill="#FFCC00"></path>
    <path d="M17.6835 4.23828L19.1772 5.27851L19.7259 4.55466L17.6835 4.23828Z" fill="#FFCC00"></path>
    <path d="M17.6883 4.24219L19.5353 4.2329L19.5305 5.11249L17.6883 4.24219Z" fill="#FFCC00"></path>
    <path d="M19.4521 3.00391L18.8724 4.69972L19.7457 4.96936L19.4521 3.00391Z" fill="#FFCC00"></path>
    <path d="M19.4523 3.00391L20.017 4.68969L19.1288 4.96936L19.4523 3.00391Z" fill="#FFCC00"></path>
    <path d="M20.5284 6.17578L19.035 5.13591L19.584 4.4117L20.5284 6.17578Z" fill="#FFCC00"></path>
    <path d="M20.5332 6.17188L19.9678 4.48562L19.0803 4.76482L20.5332 6.17188Z" fill="#FFCC00"></path>
    <path d="M21.2059 4.18335L19.704 5.23203L19.1634 4.51662L21.2059 4.18335Z" fill="#FFCC00"></path>
    <path d="M21.2059 4.18726L19.358 4.19464L19.354 5.07614L21.2059 4.18726Z" fill="#FFCC00"></path>
    <path d="M16.4662 10.1248L15.8866 8.42893L15.0134 8.69855L16.4662 10.1248Z" fill="#FFCC00"></path>
    <path d="M16.4716 10.1208L14.9681 9.07032L15.507 8.35677L16.4716 10.1208Z" fill="#FFCC00"></path>
    <path d="M14.294 10.0745L15.7874 9.03459L15.2383 8.31039L14.294 10.0745Z" fill="#FFCC00"></path>
    <path d="M14.2892 10.0706L14.8546 8.38431L15.742 8.6635L14.2892 10.0706Z" fill="#FFCC00"></path>
    <path d="M13.6165 8.08203L15.1183 9.13071L15.6589 8.4153L13.6165 8.08203Z" fill="#FFCC00"></path>
    <path d="M13.6165 8.08594L15.4644 8.09332L15.4684 8.97483L13.6165 8.08594Z" fill="#FFCC00"></path>
    <path d="M17.1389 8.13672L15.6451 9.17695L15.0965 8.45309L17.1389 8.13672Z" fill="#FFCC00"></path>
    <path d="M17.1341 8.14062L15.2871 8.13133L15.2919 9.01093L17.1341 8.14062Z" fill="#FFCC00"></path>
    <path d="M15.3703 6.90234L15.9499 8.59816L15.0767 8.86779L15.3703 6.90234Z" fill="#FFCC00"></path>
    <path d="M15.3701 6.90234L14.8054 8.58812L15.6936 8.86779L15.3701 6.90234Z" fill="#FFCC00"></path>
    <path d="M17.1263 18.8201L15.2874 18.797L15.3003 19.6628L17.1263 18.8201Z" fill="#FFCC00"></path>
    <path d="M17.1392 18.8083L15.653 19.8414L15.0968 19.1104L17.1392 18.8083Z" fill="#FFCC00"></path>
    <path d="M16.4666 20.793L15.8751 19.0895L15.0137 19.3516L16.4666 20.793Z" fill="#FFCC00"></path>
    <path d="M16.4806 20.7812L14.9684 19.7226L15.4986 19.0172L16.4806 20.7812Z" fill="#FFCC00"></path>
    <path d="M14.2985 20.7812L15.7878 19.7447L15.2347 19.0172L14.2985 20.7812Z" fill="#FFCC00"></path>
    <path d="M14.2896 20.7737L14.8492 19.0904L15.7425 19.3725L14.2896 20.7737Z" fill="#FFCC00"></path>
    <path d="M15.361 17.5508L15.9502 19.2519L15.0865 19.5162L15.361 17.5508Z" fill="#FFCC00"></path>
    <path d="M15.3601 17.5508L14.8057 19.2314L15.7041 19.5162L15.3601 17.5508Z" fill="#FFCC00"></path>
    <path d="M13.6167 18.7734L15.4627 18.7814L15.4686 19.6623L13.6167 18.7734Z" fill="#FFCC00"></path>
    <path d="M13.6167 18.7695L15.1202 19.8185L15.6591 19.1034L13.6167 18.7695Z" fill="#FFCC00"></path>
    <path d="M21.1932 22.7224L19.3543 22.6993L19.3672 23.5651L21.1932 22.7224Z" fill="#FFCC00"></path>
    <path d="M21.2061 22.7107L19.7199 23.7437L19.1637 23.0127L21.2061 22.7107Z" fill="#FFCC00"></path>
    <path d="M20.5334 24.6953L19.942 22.9919L19.0806 23.2539L20.5334 24.6953Z" fill="#FFCC00"></path>
    <path d="M20.5475 24.6836L19.0353 23.6249L19.5655 22.9195L20.5475 24.6836Z" fill="#FFCC00"></path>
    <path d="M18.3654 24.6836L19.8547 23.6471L19.3016 22.9195L18.3654 24.6836Z" fill="#FFCC00"></path>
    <path d="M18.3565 24.676L18.9161 22.9927L19.8094 23.2748L18.3565 24.676Z" fill="#FFCC00"></path>
    <path d="M19.4279 21.4531L20.0171 23.1543L19.1534 23.4186L19.4279 21.4531Z" fill="#FFCC00"></path>
    <path d="M19.427 21.4531L18.8726 23.1338L19.771 23.4186L19.427 21.4531Z" fill="#FFCC00"></path>
    <path d="M17.6836 22.6758L19.5296 22.6837L19.5354 23.5647L17.6836 22.6758Z" fill="#FFCC00"></path>
    <path d="M17.6836 22.6719L19.1871 23.7208L19.726 23.0057L17.6836 22.6719Z" fill="#FFCC00"></path>
    <path d="M36.1113 12.2188L36.6836 13.9095L35.803 14.1842L36.1113 12.2188Z" fill="#FFCC00"></path>
    <path d="M36.1113 12.2188L35.5391 13.9095L36.4197 14.1842L36.1113 12.2188Z" fill="#FFCC00"></path>
    <path d="M34.3593 13.4609L36.202 13.4444L36.1929 14.3167L34.3593 13.4609Z" fill="#FFCC00"></path>
    <path d="M34.3502 13.4531L35.84 14.4896L36.3926 13.762L34.3502 13.4531Z" fill="#FFCC00"></path>
    <path d="M35.0228 15.4375L35.6021 13.7419L36.4757 14.0118L35.0228 15.4375Z" fill="#FFCC00"></path>
    <path d="M35.0178 15.4336L36.521 14.3833L35.9818 13.6695L35.0178 15.4336Z" fill="#FFCC00"></path>
    <path d="M37.8633 13.4609L36.0206 13.4444L36.0297 14.3167L37.8633 13.4609Z" fill="#FFCC00"></path>
    <path d="M37.8724 13.4531L36.3826 14.4896L35.8299 13.762L37.8724 13.4531Z" fill="#FFCC00"></path>
    <path d="M37.1998 15.4375L36.6205 13.7419L35.747 14.0118L37.1998 15.4375Z" fill="#FFCC00"></path>
    <path d="M37.2049 15.4336L35.7017 14.3833L36.2408 13.6695L37.2049 15.4336Z" fill="#FFCC00"></path>
    <path d="M31.6496 6.17212L30.1461 5.12159L30.6851 4.40804L31.6496 6.17212Z" fill="#FFCC00"></path>
    <path d="M31.6443 6.17603L31.0647 4.4802L30.1914 4.74982L31.6443 6.17603Z" fill="#FFCC00"></path>
    <path d="M32.317 4.23438L30.8232 5.2746L30.2746 4.55075L32.317 4.23438Z" fill="#FFCC00"></path>
    <path d="M32.3122 4.23828L30.4652 4.22899L30.47 5.10859L32.3122 4.23828Z" fill="#FFCC00"></path>
    <path d="M30.5484 3L31.128 4.69581L30.2548 4.96545L30.5484 3Z" fill="#FFCC00"></path>
    <path d="M30.5483 3L29.9836 4.68578L30.8718 4.96545L30.5483 3Z" fill="#FFCC00"></path>
    <path d="M29.472 6.17212L30.9654 5.13225L30.4164 4.40804L29.472 6.17212Z" fill="#FFCC00"></path>
    <path d="M29.4672 6.16821L30.0327 4.48196L30.9201 4.76116L29.4672 6.16821Z" fill="#FFCC00"></path>
    <path d="M28.7945 4.17969L30.2963 5.22836L30.8369 4.51296L28.7945 4.17969Z" fill="#FFCC00"></path>
    <path d="M28.7945 4.18359L30.6424 4.19098L30.6463 5.07248L28.7945 4.18359Z" fill="#FFCC00"></path>
    <path d="M33.5342 10.1211L34.1139 8.42527L34.9871 8.69489L33.5342 10.1211Z" fill="#FFCC00"></path>
    <path d="M33.529 10.1172L35.0325 9.06666L34.4935 8.35311L33.529 10.1172Z" fill="#FFCC00"></path>
    <path d="M35.7064 10.0706L34.213 9.03069L34.7621 8.30648L35.7064 10.0706Z" fill="#FFCC00"></path>
    <path d="M35.7112 10.0667L35.1458 8.3804L34.2584 8.6596L35.7112 10.0667Z" fill="#FFCC00"></path>
    <path d="M36.384 8.07812L34.8822 9.1268L34.3415 8.4114L36.384 8.07812Z" fill="#FFCC00"></path>
    <path d="M36.384 8.08203L34.5361 8.08941L34.5321 8.97092L36.384 8.08203Z" fill="#FFCC00"></path>
    <path d="M32.8615 8.13306L34.3553 9.17328L34.9039 8.44943L32.8615 8.13306Z" fill="#FFCC00"></path>
    <path d="M32.8663 8.13696L34.7134 8.12767L34.7085 9.00727L32.8663 8.13696Z" fill="#FFCC00"></path>
    <path d="M34.6301 6.89868L34.0505 8.59449L34.9237 8.86413L34.6301 6.89868Z" fill="#FFCC00"></path>
    <path d="M34.6302 6.89868L35.1949 8.58446L34.3068 8.86413L34.6302 6.89868Z" fill="#FFCC00"></path>
    <path d="M32.8745 18.8164L34.7134 18.7933L34.7005 19.6591L32.8745 18.8164Z" fill="#FFCC00"></path>
    <path d="M32.8616 18.8047L34.3478 19.8377L34.904 19.1067L32.8616 18.8047Z" fill="#FFCC00"></path>
    <path d="M33.534 20.7891L34.1254 19.0856L34.9869 19.3477L33.534 20.7891Z" fill="#FFCC00"></path>
    <path d="M33.52 20.7773L35.0322 19.7187L34.502 19.0133L33.52 20.7773Z" fill="#FFCC00"></path>
    <path d="M35.7021 20.7773L34.2128 19.7408L34.7659 19.0133L35.7021 20.7773Z" fill="#FFCC00"></path>
    <path d="M35.711 20.7698L35.1514 19.0864L34.2581 19.3686L35.711 20.7698Z" fill="#FFCC00"></path>
    <path d="M34.6397 17.5469L34.0505 19.248L34.9142 19.5123L34.6397 17.5469Z" fill="#FFCC00"></path>
    <path d="M34.6406 17.5469L35.195 19.2275L34.2966 19.5123L34.6406 17.5469Z" fill="#FFCC00"></path>
    <path d="M36.384 18.7695L34.538 18.7775L34.5322 19.6584L36.384 18.7695Z" fill="#FFCC00"></path>
    <path d="M36.384 18.7656L34.8805 19.8146L34.3416 19.0995L36.384 18.7656Z" fill="#FFCC00"></path>
    <path d="M28.8076 22.7188L30.6465 22.6957L30.6335 23.5615L28.8076 22.7188Z" fill="#FFCC00"></path>
    <path d="M28.7946 22.707L30.2808 23.7401L30.837 23.0091L28.7946 22.707Z" fill="#FFCC00"></path>
    <path d="M29.467 24.6914L30.0585 22.988L30.9199 23.25L29.467 24.6914Z" fill="#FFCC00"></path>
    <path d="M29.453 24.6797L30.9652 23.621L30.435 22.9156L29.453 24.6797Z" fill="#FFCC00"></path>
    <path d="M31.6352 24.6797L30.1459 23.6432L30.699 22.9156L31.6352 24.6797Z" fill="#FFCC00"></path>
    <path d="M31.644 24.6721L31.0845 22.9888L30.1912 23.2709L31.644 24.6721Z" fill="#FFCC00"></path>
    <path d="M30.5728 21.4492L29.9836 23.1503L30.8472 23.4147L30.5728 21.4492Z" fill="#FFCC00"></path>
    <path d="M30.5736 21.4492L31.128 23.1299L30.2296 23.4147L30.5736 21.4492Z" fill="#FFCC00"></path>
    <path d="M32.3171 22.6719L30.4711 22.6798L30.4652 23.5608L32.3171 22.6719Z" fill="#FFCC00"></path>
    <path d="M32.3171 22.668L30.8136 23.7169L30.2747 23.0018L32.3171 22.668Z" fill="#FFCC00"></path>
  </g>
  <defs>
    <clipPath id="clip0_394_5188">
      <rect width="50" height="32" fill="white"></rect>
    </clipPath>
  </defs>
</svg>
